<svg id="Layer_3" enable-background="new 0 0 64 64" height="512" viewBox="0 0 64 64" width="512" xmlns="http://www.w3.org/2000/svg"><path d="m34 7h-32v48h23.38c-.839-.733-1.38-1.798-1.38-3v-26c0-2.209 1.791-4 4-4h3l.166-.007c-.109-.648-.166-1.314-.166-1.993 0-3.038 1.138-5.805 3-7.919z" fill="#f0bc5e"/><path d="m60.969 30h.031v-4c0-2.757-2.243-5-5-5h-.062c.026-.333.062-.663.062-1 0-7.168-5.832-13-13-13-3.018 0-5.791 1.043-8 2.774v-3.774c0-2.757-2.243-5-5-5h-24c-2.757 0-5 2.243-5 5v52c0 2.757 2.243 5 5 5h24c2.757 0 5-2.243 5-5v-1h23c2.757 0 5-2.243 5-5v-18c0-1.641-.806-3.088-2.031-4zm-4.969-7c1.654 0 3 1.346 3 3v3.101c-.323-.066-.658-.101-1-.101h-5.647c1.615-1.676 2.751-3.741 3.286-6zm-13-14c6.065 0 11 4.935 11 11 0 3.599-1.76 6.936-4.705 9h-5.295v-2.142c1.72-.447 3-2 3-3.858 0-2.206-1.794-4-4-4-1.103 0-2-.897-2-2s.897-2 2-2 2 .897 2 2h2c0-1.858-1.28-3.411-3-3.858v-2.142h-2v2.142c-1.72.447-3 2-3 3.858 0 2.206 1.794 4 4 4 1.103 0 2 .897 2 2s-.897 2-2 2-2-.897-2-2h-2c0 1.858 1.28 3.411 3 3.858v2.142h-5.295c-2.945-2.064-4.705-5.401-4.705-9 0-6.065 4.935-11 11-11zm-11.985 16h-3.015v2h4v-.116c.474.757 1.021 1.467 1.647 2.116h-5.647c-1.654 0-3-1.346-3-3s1.346-3 3-3h2.361c.162.687.384 1.353.654 2zm1.985 33c0 1.654-1.346 3-3 3h-24c-1.654 0-3-1.346-3-3v-52c0-1.654 1.346-3 3-3h24c1.654 0 3 1.346 3 3v5.705c-1.872 2.253-3 5.144-3 8.295 0 .337.036.667.062 1h-2.062c-2.757 0-5 2.243-5 5v26c0 2.757 2.243 5 5 5h5zm25-3h-30c-1.654 0-3-1.346-3-3v-22.002c.836.628 1.875 1.002 3 1.002h30c1.654 0 3 1.346 3 3v3h-12c-3.309 0-6 2.691-6 6s2.691 6 6 6h12v3c0 1.654-1.346 3-3 3zm3-16v8h-12c-2.206 0-4-1.794-4-4s1.794-4 4-4z"/><path d="m15 57h6v2h-6z"/><path d="m47 42h2v2h-2z"/><path d="m50 19h2v2h-2z"/><path d="m34 19h2v2h-2z"/><path d="m59 11h2v2h-2z"/><path d="m59 15h2v2h-2z"/><path d="m61 13h2v2h-2z"/><path d="m57 13h2v2h-2z"/><path d="m25 13h2v2h-2z"/><path d="m25 17h2v2h-2z"/><path d="m27 15h2v2h-2z"/><path d="m23 15h2v2h-2z"/><path d="m51 1h2v2h-2z"/><path d="m51 5h2v2h-2z"/><path d="m53 3h2v2h-2z"/><path d="m49 3h2v2h-2z"/></svg>