<svg width="48" height="48" viewBox="0 0 48 48" fill="none" xmlns="http://www.w3.org/2000/svg">
<rect width="48" height="48" rx="16" fill="#F839AB" fill-opacity="0.2"/>
<path d="M37.3333 12.333H10.6667C10.12 12.333 9.66667 11.8797 9.66667 11.333C9.66667 10.7863 10.12 10.333 10.6667 10.333H37.3333C37.88 10.333 38.3333 10.7863 38.3333 11.333C38.3333 11.8797 37.88 12.333 37.3333 12.333Z" fill="#F839AB"/>
<path d="M12.8933 11.333V27.293C12.8933 28.5997 13.5067 29.8397 14.56 30.6263L21.5067 35.8263C22.9867 36.933 25.0267 36.933 26.5067 35.8263L33.4533 30.6263C34.5067 29.8397 35.12 28.5997 35.12 27.293V11.333H12.8933ZM29.3333 26.333H18.6667C18.12 26.333 17.6667 25.8797 17.6667 25.333C17.6667 24.7863 18.12 24.333 18.6667 24.333H29.3333C29.88 24.333 30.3333 24.7863 30.3333 25.333C30.3333 25.8797 29.88 26.333 29.3333 26.333ZM29.3333 19.6663H18.6667C18.12 19.6663 17.6667 19.213 17.6667 18.6663C17.6667 18.1197 18.12 17.6663 18.6667 17.6663H29.3333C29.88 17.6663 30.3333 18.1197 30.3333 18.6663C30.3333 19.213 29.88 19.6663 29.3333 19.6663Z" fill="#F839AB"/>
</svg>
