<svg width="111" height="200" viewBox="0 0 111 200" fill="none" xmlns="http://www.w3.org/2000/svg">
<g opacity="0.2">
<path fill-rule="evenodd" clip-rule="evenodd" d="M100 200C155.228 200 200 155.228 200 100C200 44.7715 155.228 0 100 0C44.7715 0 0 44.7715 0 100C0 155.228 44.7715 200 100 200ZM100 146.685C74.2165 146.685 53.3148 125.784 53.3148 100C53.3148 74.2165 74.2165 53.3148 100 53.3148C125.784 53.3148 146.685 74.2165 146.685 100C146.685 125.784 125.784 146.685 100 146.685Z" fill="#0050AD"/>
<path fill-rule="evenodd" clip-rule="evenodd" d="M84.3373 198.78C36.5491 191.263 0 149.899 0 99.9993C0 50.0993 36.5491 8.73583 84.3373 1.21875C116.61 8.18074 141.853 44.175 145.405 89.0948C140.494 68.5712 122.029 53.3141 100 53.3141C74.2165 53.3141 53.3148 74.2158 53.3148 99.9993C53.3148 125.783 74.2165 146.684 100 146.684C122.029 146.684 140.494 131.427 145.405 110.904C141.853 155.824 116.61 191.818 84.3373 198.78Z" fill="#72ACEE"/>
<path fill-rule="evenodd" clip-rule="evenodd" d="M76.0202 59.9359C62.4181 68.0947 53.3148 82.9843 53.3148 100C53.3148 117.016 62.4181 131.905 76.0202 140.064C67.1953 154.726 53.6749 167.551 36.8421 177.535C14.358 159.198 0 131.276 0 100C0 68.7242 14.358 40.8019 36.8421 22.4648C53.6749 32.4489 67.1953 45.2745 76.0202 59.9359Z" fill="#CCE1F9"/>
</g>
</svg>
