<svg width="40" height="40" viewBox="0 0 40 40" fill="none" xmlns="http://www.w3.org/2000/svg">
<rect width="40" height="40" rx="16" fill="#0068E1" fill-opacity="0.2"/>
<path d="M21.0445 25.0816L21.064 25.064L21.0816 25.0445C21.198 24.9152 21.3063 24.7657 21.3842 24.566C21.454 24.3964 21.5 24.2033 21.5 24C21.5 23.7941 21.4528 23.5988 21.3815 23.4277C21.3091 23.2538 21.2081 23.096 21.0816 22.9555L21.064 22.936L21.0445 22.9184C20.904 22.7919 20.7462 22.6909 20.5723 22.6185C20.2092 22.4672 19.7908 22.4672 19.4277 22.6185C19.2538 22.6909 19.096 22.7919 18.9555 22.9184L18.936 22.936L18.9184 22.9555C18.7919 23.096 18.6909 23.2538 18.6185 23.4277C18.5472 23.5988 18.5 23.7941 18.5 24C18.5 24.2033 18.546 24.3964 18.6158 24.566C18.6937 24.7657 18.802 24.9152 18.9184 25.0445L18.936 25.064L18.9555 25.0816C19.096 25.2081 19.2538 25.3091 19.4277 25.3815C19.5988 25.4528 19.7941 25.5 20 25.5C20.2059 25.5 20.4012 25.4528 20.5723 25.3815C20.7462 25.3091 20.904 25.2081 21.0445 25.0816ZM10.5 20C10.5 14.7661 14.7661 10.5 20 10.5C25.2339 10.5 29.5 14.7661 29.5 20C29.5 25.2339 25.2339 29.5 20 29.5C14.7661 29.5 10.5 25.2339 10.5 20ZM20 14.75C19.3139 14.75 18.75 15.3139 18.75 16V21C18.75 21.6861 19.3139 22.25 20 22.25C20.6861 22.25 21.25 21.6861 21.25 21V16C21.25 15.3139 20.6861 14.75 20 14.75Z" fill="#0068E1" stroke="#0068E1"/>
</svg>
