<svg width="40" height="40" viewBox="0 0 40 40" fill="none" xmlns="http://www.w3.org/2000/svg">
<rect width="40" height="40" rx="16" fill="#D6E9FF"/>
<path d="M30 27V30H10V27C10 26.45 10.45 26 11 26H29C29.55 26 30 26.45 30 27Z" fill="#0068E1" stroke="#0068E1" stroke-width="1.5" stroke-miterlimit="10" stroke-linecap="round" stroke-linejoin="round"/>
<path d="M15 19H13V26H15V19Z" fill="#0068E1"/>
<path d="M19 19H17V26H19V19Z" fill="#0068E1"/>
<path d="M23 19H21V26H23V19Z" fill="#0068E1"/>
<path d="M27 19H25V26H27V19Z" fill="#0068E1"/>
<path d="M31 30.75H9C8.59 30.75 8.25 30.41 8.25 30C8.25 29.59 8.59 29.25 9 29.25H31C31.41 29.25 31.75 29.59 31.75 30C31.75 30.41 31.41 30.75 31 30.75Z" fill="#0068E1"/>
<path d="M29.37 13.7498L20.37 10.1498C20.17 10.0698 19.83 10.0698 19.63 10.1498L10.63 13.7498C10.28 13.8898 10 14.2998 10 14.6798V17.9998C10 18.5498 10.45 18.9998 11 18.9998H29C29.55 18.9998 30 18.5498 30 17.9998V14.6798C30 14.2998 29.72 13.8898 29.37 13.7498ZM20 16.4998C19.17 16.4998 18.5 15.8298 18.5 14.9998C18.5 14.1698 19.17 13.4998 20 13.4998C20.83 13.4998 21.5 14.1698 21.5 14.9998C21.5 15.8298 20.83 16.4998 20 16.4998Z" fill="#0068E1"/>
</svg>
