<svg width="204" height="152" viewBox="0 0 204 152" fill="none" xmlns="http://www.w3.org/2000/svg">
<circle cx="130" cy="4" r="4" fill="#2EC37C"/>
<circle cx="18" cy="126" r="4" fill="#2EC37C"/>
<circle cx="168" cy="46" r="4" fill="#2EC37C"/>
<circle cx="162" cy="102" r="2" fill="#2EC37C"/>
<circle cx="62" cy="2" r="2" fill="#2EC37C"/>
<circle cx="2" cy="82" r="2" fill="#2EC37C"/>
<circle cx="18" cy="18" r="8" fill="#2EC37C"/>
<circle cx="136" cy="144" r="8" fill="#2EC37C"/>
<circle cx="93" cy="68" r="65" fill="#2EC37C" fill-opacity="0.2"/>
<path d="M93.5002 26.333C70.5418 26.333 51.8335 45.0413 51.8335 67.9997C51.8335 90.958 70.5418 109.666 93.5002 109.666C116.458 109.666 135.167 90.958 135.167 67.9997C135.167 45.0413 116.458 26.333 93.5002 26.333ZM113.417 58.4163L89.7918 82.0413C89.2085 82.6247 88.4168 82.958 87.5835 82.958C86.7502 82.958 85.9585 82.6247 85.3752 82.0413L73.5835 70.2497C72.3752 69.0413 72.3752 67.0413 73.5835 65.833C74.7918 64.6247 76.7918 64.6247 78.0002 65.833L87.5835 75.4163L109 53.9997C110.208 52.7913 112.208 52.7913 113.417 53.9997C114.625 55.208 114.625 57.1663 113.417 58.4163Z" fill="#2EC37C"/>
<rect x="136" y="80" width="64" height="64" rx="32" fill="#D5F3E5"/>
<path d="M182.95 93.667H178.05C176.6 93.667 175.533 94.267 175.05 95.3337C174.783 95.817 174.667 96.3837 174.667 97.0503V101.95C174.667 104.067 175.933 105.334 178.05 105.334H182.95C183.617 105.334 184.183 105.217 184.667 104.95C185.733 104.467 186.333 103.4 186.333 101.95V97.0503C186.333 94.9337 185.067 93.667 182.95 93.667ZM184.517 100.217C184.35 100.384 184.1 100.5 183.833 100.517H181.483V101.367L181.5 102.834C181.483 103.117 181.383 103.35 181.183 103.55C181.017 103.717 180.767 103.834 180.5 103.834C179.95 103.834 179.5 103.384 179.5 102.834V100.5L177.167 100.517C176.617 100.517 176.167 100.05 176.167 99.5003C176.167 98.9503 176.617 98.5003 177.167 98.5003L178.633 98.517H179.5V96.1837C179.5 95.6337 179.95 95.167 180.5 95.167C181.05 95.167 181.5 95.6337 181.5 96.1837L181.483 97.367V98.5003H183.833C184.383 98.5003 184.833 98.9503 184.833 99.5003C184.817 99.7837 184.7 100.017 184.517 100.217Z" fill="#2EC37C"/>
<path d="M163 109.3C165.191 109.3 166.967 107.524 166.967 105.333C166.967 103.142 165.191 101.366 163 101.366C160.809 101.366 159.033 103.142 159.033 105.333C159.033 107.524 160.809 109.3 163 109.3Z" fill="#2EC37C"/>
<path d="M182.95 105.333H182.167V113.016L181.95 112.833C180.65 111.716 178.55 111.716 177.25 112.833L170.317 118.783C169.017 119.9 166.917 119.9 165.617 118.783L165.05 118.316C163.867 117.283 161.983 117.183 160.65 118.083L154.417 122.266C154.05 121.333 153.833 120.25 153.833 118.983V105.016C153.833 100.316 156.317 97.833 161.017 97.833H174.667V97.0497C174.667 96.383 174.783 95.8163 175.05 95.333H161.017C154.95 95.333 151.333 98.9497 151.333 105.016V118.983C151.333 120.8 151.65 122.383 152.267 123.716C153.7 126.883 156.767 128.666 161.017 128.666H174.983C181.05 128.666 184.667 125.05 184.667 118.983V104.95C184.183 105.216 183.617 105.333 182.95 105.333Z" fill="#2EC37C"/>
<rect x="136" y="80" width="64" height="64" rx="32" stroke="white" stroke-width="8"/>
<circle cx="178" cy="148" r="2" fill="#2EC37C"/>
</svg>
