<svg width="204" height="152" viewBox="0 0 204 152" fill="none" xmlns="http://www.w3.org/2000/svg">
<circle cx="130" cy="4" r="4" fill="#2EC37C"/>
<circle cx="18" cy="126" r="4" fill="#2EC37C"/>
<circle cx="168" cy="46" r="4" fill="#2EC37C"/>
<circle cx="162" cy="102" r="2" fill="#2EC37C"/>
<circle cx="62" cy="2" r="2" fill="#2EC37C"/>
<circle cx="2" cy="82" r="2" fill="#2EC37C"/>
<circle cx="18" cy="18" r="8" fill="#2EC37C"/>
<circle cx="136" cy="144" r="8" fill="#2EC37C"/>
<circle cx="93" cy="68" r="65" fill="#2EC37C" fill-opacity="0.2"/>
<path d="M93.4997 26.333C70.5413 26.333 51.833 45.0413 51.833 67.9997C51.833 90.958 70.5413 109.666 93.4997 109.666C116.458 109.666 135.166 90.958 135.166 67.9997C135.166 45.0413 116.458 26.333 93.4997 26.333ZM113.416 58.4163L89.7913 82.0413C89.208 82.6247 88.4163 82.958 87.583 82.958C86.7497 82.958 85.958 82.6247 85.3747 82.0413L73.583 70.2497C72.3747 69.0413 72.3747 67.0413 73.583 65.833C74.7913 64.6247 76.7913 64.6247 77.9997 65.833L87.583 75.4163L109 53.9997C110.208 52.7913 112.208 52.7913 113.416 53.9997C114.625 55.208 114.625 57.1663 113.416 58.4163Z" fill="#2EC37C"/>
<rect x="136" y="80" width="64" height="64" rx="32" fill="#D5F3E5"/>
<path d="M169.25 118.533H170.333C171.417 118.533 172.317 117.567 172.317 116.4C172.317 114.95 171.8 114.667 170.95 114.367L169.267 113.783V118.533H169.25Z" fill="#2EC37C"/>
<path d="M167.95 95.167C158.75 95.2004 151.3 102.684 151.333 111.884C151.366 121.084 158.85 128.534 168.05 128.5C177.25 128.467 184.7 120.984 184.666 111.784C184.633 102.584 177.15 95.1504 167.95 95.167ZM171.766 112C173.066 112.45 174.816 113.417 174.816 116.4C174.816 118.967 172.8 121.034 170.333 121.034H169.25V122C169.25 122.684 168.683 123.25 168 123.25C167.316 123.25 166.75 122.684 166.75 122V121.034H166.15C163.416 121.034 161.2 118.734 161.2 115.9C161.2 115.217 161.766 114.65 162.45 114.65C163.133 114.65 163.7 115.217 163.7 115.9C163.7 117.35 164.8 118.534 166.15 118.534H166.75V112.9L164.233 112C162.933 111.55 161.183 110.584 161.183 107.6C161.183 105.034 163.2 102.967 165.666 102.967H166.75V102C166.75 101.317 167.316 100.75 168 100.75C168.683 100.75 169.25 101.317 169.25 102V102.967H169.85C172.583 102.967 174.8 105.267 174.8 108.1C174.8 108.784 174.233 109.35 173.55 109.35C172.866 109.35 172.3 108.784 172.3 108.1C172.3 106.65 171.2 105.467 169.85 105.467H169.25V111.1L171.766 112Z" fill="#2EC37C"/>
<path d="M163.7 107.617C163.7 109.067 164.217 109.35 165.067 109.65L166.75 110.233V105.467H165.667C164.584 105.467 163.7 106.433 163.7 107.617Z" fill="#2EC37C"/>
<rect x="136" y="80" width="64" height="64" rx="32" stroke="white" stroke-width="8"/>
<circle cx="178" cy="148" r="2" fill="#2EC37C"/>
</svg>
