<svg width="48" height="48" viewBox="0 0 48 48" fill="none" xmlns="http://www.w3.org/2000/svg">
<rect width="48" height="48" rx="16" fill="#40C08C" fill-opacity="0.2"/>
<path d="M30.6667 11.2402H17.3334C13.3334 11.2402 10.6667 13.9069 10.6667 17.9069V25.9069C10.6667 29.9069 13.3334 32.5736 17.3334 32.5736V35.4136C17.3334 36.4802 18.52 37.1202 19.4 36.5202L25.3334 32.5736H30.6667C34.6667 32.5736 37.3334 29.9069 37.3334 25.9069V17.9069C37.3334 13.9069 34.6667 11.2402 30.6667 11.2402ZM24 27.4669C23.44 27.4669 23 27.0136 23 26.4669C23 25.9202 23.44 25.4669 24 25.4669C24.56 25.4669 25 25.9202 25 26.4669C25 27.0136 24.56 27.4669 24 27.4669ZM25.68 21.9336C25.16 22.2802 25 22.5069 25 22.8802V23.1602C25 23.7069 24.5467 24.1602 24 24.1602C23.4534 24.1602 23 23.7069 23 23.1602V22.8802C23 21.3336 24.1334 20.5736 24.56 20.2802C25.0534 19.9469 25.2134 19.7202 25.2134 19.3736C25.2134 18.7069 24.6667 18.1602 24 18.1602C23.3334 18.1602 22.7867 18.7069 22.7867 19.3736C22.7867 19.9202 22.3334 20.3736 21.7867 20.3736C21.24 20.3736 20.7867 19.9202 20.7867 19.3736C20.7867 17.6002 22.2267 16.1602 24 16.1602C25.7734 16.1602 27.2134 17.6002 27.2134 19.3736C27.2134 20.8936 26.0934 21.6536 25.68 21.9336Z" fill="#00B181"/>
</svg>
