<svg width="295" height="128" viewBox="0 0 295 128" fill="none" xmlns="http://www.w3.org/2000/svg">
<rect width="295" height="128" rx="24" fill="#FFEDEB"/>
<path d="M151.753 27.0671C146.629 28.7485 141.559 30.5519 136.498 32.4603L136.485 32.4298L134.063 28.7627C132.366 26.1598 129.835 22.2488 122.701 25.4016L114.713 28.9317C107.609 32.0711 108.717 36.3921 109.536 39.5651L110.62 43.7506C107.866 45.1866 105.111 46.6226 102.397 48.15L96.4467 51.5084C95.2201 52.1963 94.8039 53.7286 95.4783 54.9247C96.1527 56.1209 97.6545 56.5505 98.8811 55.8627L104.831 52.5042C120.107 43.8586 136.474 37.3542 153.348 31.829C153.439 31.7886 153.5 31.7617 153.592 31.7212C154.75 31.2092 155.366 29.8804 154.962 28.6375C154.501 27.347 153.088 26.6231 151.753 27.0671Z" fill="#F95959"/>
<path d="M171.6 51.133C170.8 50.2997 169.7 49.833 168.567 49.833H126.433C125.3 49.833 124.167 50.2997 123.4 51.133C122.633 51.9663 122.2 53.0997 122.267 54.2663L124.333 88.4663C124.7 93.533 125.167 99.8663 136.8 99.8663H158.2C169.833 99.8663 170.3 93.5663 170.667 88.4663L172.733 54.2997C172.8 53.0997 172.367 51.9663 171.6 51.133ZM153.033 83.1663H141.933C140.567 83.1663 139.433 82.033 139.433 80.6663C139.433 79.2997 140.567 78.1663 141.933 78.1663H153.033C154.4 78.1663 155.533 79.2997 155.533 80.6663C155.533 82.033 154.4 83.1663 153.033 83.1663ZM155.833 69.833H139.167C137.8 69.833 136.667 68.6997 136.667 67.333C136.667 65.9663 137.8 64.833 139.167 64.833H155.833C157.2 64.833 158.333 65.9663 158.333 67.333C158.333 68.6997 157.2 69.833 155.833 69.833Z" fill="#F95959"/>
</svg>
