<svg width="33" height="32" viewBox="0 0 33 32" fill="none" xmlns="http://www.w3.org/2000/svg">
<path d="M21.4031 18.4257L21.4042 18.4236C21.9067 17.4185 22.8943 16.8066 24.0103 16.8066H28.6503C28.8895 16.8066 29.0837 17.0048 29.0837 17.24V22.3537C28.915 24.4721 28.1672 26.0748 26.968 27.1512C25.7632 28.2326 24.0465 28.8333 21.8503 28.8333H10.677C8.3497 28.8333 6.54851 28.1415 5.32988 26.9274C4.11149 25.7136 3.41699 23.9195 3.41699 21.6V17.2533C3.41699 17.0094 3.60647 16.82 3.85033 16.82H8.51699C9.61805 16.82 10.6209 17.4439 11.1241 18.439L11.1247 18.4401L12.2431 20.6369C12.2434 20.6375 12.2437 20.638 12.2439 20.6385C12.4824 21.1146 12.8019 21.4145 13.1549 21.5863C13.4987 21.7535 13.8352 21.78 14.077 21.78H18.4503C19.23 21.78 19.934 21.3365 20.2837 20.6378C20.2839 20.6375 20.2841 20.6372 20.2842 20.6369L21.4031 18.4257Z" fill="#F95959" stroke="#F95959"/>
<path d="M17.2496 4.57999H16.0425L16.7629 5.30043V6.16665H15.7629V5.06665V3.85955L14.9094 4.7131L13.9494 5.6731C13.758 5.8645 13.4346 5.8645 13.2432 5.6731C13.0518 5.4817 13.0518 5.15828 13.2432 4.96687L15.9098 2.30021L15.9234 2.28663L15.9358 2.27213C15.9369 2.27107 15.943 2.2651 15.9605 2.25406C15.9855 2.23819 16.016 2.22249 16.0732 2.19387C16.0875 2.18673 16.0912 2.18496 16.0943 2.18356C16.0959 2.18285 16.0976 2.18215 16.1011 2.181C16.1218 2.17407 16.1373 2.16892 16.1521 2.16431C16.1664 2.15985 16.1766 2.15697 16.1842 2.15506C16.1875 2.15425 16.1899 2.15369 16.1917 2.15332H16.1919H16.1921H16.1923H16.1925H16.1928H16.193H16.1932H16.1934H16.1936H16.1939H16.1941H16.1943H16.1945H16.1947H16.195H16.1952H16.1954H16.1956H16.1958H16.1961H16.1963H16.1965H16.1967H16.1969H16.1972H16.1974H16.1976H16.1978H16.198H16.1982H16.1985H16.1987H16.1989H16.1991H16.1993H16.1995H16.1997H16.2H16.2002H16.2004H16.2006H16.2008H16.201H16.2012H16.2015H16.2017H16.2019H16.2021H16.2023H16.2025H16.2027H16.2029H16.2032H16.2034H16.2036H16.2038H16.204H16.2042H16.2044H16.2046H16.2048H16.2051H16.2053H16.2055H16.2057H16.2059H16.2061H16.2063H16.2065H16.2067H16.2069H16.2071H16.2074H16.2076H16.2078H16.208H16.2082H16.2084H16.2086H16.2088H16.209H16.2092H16.2094H16.2096H16.2098H16.21H16.2102H16.2104H16.2107H16.2109H16.2111H16.2113H16.2115H16.2117H16.2119H16.2121H16.2123H16.2125H16.2127H16.2129H16.2131H16.2133H16.2135H16.2137H16.2139H16.2141H16.2143H16.2145H16.2147H16.2149H16.2151H16.2153H16.2155H16.2157H16.2159H16.2161H16.2163H16.2165H16.2167H16.2169H16.2172H16.2174H16.2176H16.2178H16.218H16.2182H16.2184H16.2186H16.2188H16.219H16.2192H16.2194H16.2196H16.2198H16.22H16.2202H16.2204H16.2206H16.2207H16.2209H16.2211H16.2213H16.2215H16.2217H16.2219H16.2221H16.2223H16.2225H16.2227H16.2229H16.2231H16.2233H16.2235H16.2237H16.2239H16.2241H16.2243H16.2245H16.2247H16.2249H16.2251H16.2253H16.2255H16.2257H16.2259H16.2261H16.2263H16.2265H16.2267H16.2269H16.2271H16.2273H16.2275H16.2277H16.2279H16.2281H16.2283H16.2285H16.2286H16.2288H16.229H16.2292H16.2294H16.2296H16.2298H16.23H16.2302H16.2304H16.2306H16.2308H16.231H16.2312H16.2314H16.2316H16.2318H16.232H16.2322H16.2324H16.2326H16.2328H16.233H16.2332H16.2333H16.2335H16.2337H16.2339H16.2341H16.2343H16.2345H16.2347H16.2349H16.2351H16.2353H16.2355H16.2357H16.2359H16.2361H16.2363H16.2365H16.2367H16.2369H16.2371H16.2373H16.2374H16.2376H16.2378H16.238H16.2382H16.2384H16.2386H16.2388H16.239H16.2392H16.2394H16.2396H16.2398H16.24H16.2402H16.2404H16.2406H16.2408H16.241H16.2412H16.2414H16.2416H16.2417H16.2419H16.2421H16.2423H16.2425H16.2427H16.2429H16.2431H16.2433H16.2435H16.2437H16.2439H16.2441H16.2443H16.2445H16.2447H16.2449H16.2451H16.2453H16.2455H16.2457H16.2459H16.2461H16.2463H16.2465H16.2467H16.2469H16.2471H16.2472H16.2474H16.2476H16.2478H16.248H16.2482H16.2484H16.2486H16.2488H16.249H16.2492H16.2494H16.2496H16.2498H16.25H16.2502H16.2504H16.2506H16.2508H16.251H16.2512H16.2514H16.2516H16.2518H16.252H16.2522H16.2524H16.2526H16.2528H16.253H16.2532H16.2534H16.2536H16.2538H16.254H16.2542H16.2544H16.2546H16.2548H16.255H16.2552H16.2554H16.2556H16.2558H16.256H16.2562H16.2564H16.2566H16.2568H16.257H16.2572H16.2574H16.2576H16.2578H16.258C16.3207 2.16144 16.3612 2.16778 16.3928 2.17556C16.395 2.17667 16.3971 2.17777 16.3993 2.17886C16.4183 2.18833 16.4368 2.19615 16.4547 2.20261C16.4957 2.22521 16.5274 2.24628 16.5503 2.26431C16.5793 2.29871 16.6083 2.32397 16.6299 2.34068L19.2694 4.98021C19.4608 5.17161 19.4608 5.49503 19.2694 5.68643C19.1681 5.78772 19.0442 5.83332 18.9163 5.83332C18.7884 5.83332 18.6645 5.78772 18.5632 5.68643L17.7629 4.88621V4.57999H17.2629H17.2496Z" fill="#F95959" stroke="#F95959"/>
<path d="M29.5837 14.4137V14.467C29.2903 14.3603 28.9703 14.307 28.6503 14.307H24.0103C21.9437 14.307 20.0903 15.4537 19.1703 17.2937L18.1703 19.267H14.357L13.357 17.307C12.437 15.4537 10.5837 14.307 8.51699 14.307H3.85033C3.53033 14.307 3.21033 14.3603 2.91699 14.467V14.4137C2.91699 9.56033 5.81033 6.66699 10.6637 6.66699H15.2503V12.0003C15.2503 12.547 15.7037 13.0003 16.2503 13.0003C16.797 13.0003 17.2503 12.547 17.2503 12.0003V6.66699H21.837C26.6903 6.66699 29.5837 9.56033 29.5837 14.4137Z" fill="#F95959"/>
</svg>
