<svg width="33" height="32" viewBox="0 0 33 32" fill="none" xmlns="http://www.w3.org/2000/svg">
<path d="M21.9026 18.4257L21.9037 18.4236C22.4063 17.4185 23.3938 16.8066 24.5098 16.8066H29.1498C29.3891 16.8066 29.5832 17.0048 29.5832 17.24V22.3537C29.4145 24.4721 28.6667 26.0748 27.4675 27.1512C26.2627 28.2326 24.546 28.8333 22.3498 28.8333H11.1765C8.84922 28.8333 7.04803 28.1415 5.82939 26.9274C4.611 25.7136 3.9165 23.9195 3.9165 21.6V17.2533C3.9165 17.0094 4.10598 16.82 4.34984 16.82H9.0165C10.1176 16.82 11.1204 17.4439 11.6237 18.439L11.6243 18.4401L12.7426 20.6369C12.7429 20.6375 12.7432 20.638 12.7434 20.6385C12.9819 21.1146 13.3014 21.4145 13.6544 21.5863C13.9982 21.7535 14.3347 21.78 14.5765 21.78H18.9498C19.7295 21.78 20.4335 21.3365 20.7833 20.6378C20.7834 20.6375 20.7836 20.6372 20.7837 20.6369L21.9026 18.4257Z" fill="#00B181" stroke="#00B181"/>
<path d="M17.75 2.66699C17.75 2.12033 17.2967 1.66699 16.75 1.66699C16.2033 1.66699 15.75 2.12033 15.75 2.66699V5.33366H17.75V2.66699Z" fill="#00B181"/>
<path d="M30.0832 13.0797V14.4663C29.7898 14.3597 29.4698 14.3063 29.1498 14.3063H24.5098C22.4432 14.3063 20.5898 15.453 19.6698 17.293L18.6698 19.2663H14.8565L13.8565 17.3063C12.9365 15.453 11.0832 14.3063 9.0165 14.3063H4.34984C4.02984 14.3063 3.70984 14.3597 3.4165 14.4663V13.0797C3.4165 8.22634 6.30984 5.33301 11.1632 5.33301H15.7498V9.58634L14.7898 8.62634C14.4032 8.23967 13.7632 8.23967 13.3765 8.62634C12.9898 9.01301 12.9898 9.65301 13.3765 10.0397L16.0432 12.7063C16.0565 12.7197 16.0698 12.7197 16.0698 12.733C16.1632 12.813 16.2565 12.8797 16.3632 12.9197C16.4965 12.973 16.6165 12.9997 16.7498 12.9997C16.8832 12.9997 17.0032 12.973 17.1232 12.9197C17.2432 12.8797 17.3632 12.7997 17.4565 12.7063L20.1232 10.0397C20.5098 9.65301 20.5098 9.01301 20.1232 8.62634C19.7365 8.23967 19.0965 8.23967 18.7098 8.62634L17.7498 9.58634V5.33301H22.3365C27.1898 5.33301 30.0832 8.22634 30.0832 13.0797Z" fill="#00B181"/>
</svg>
