<svg width="28" height="28" viewBox="0 0 28 28" fill="none" xmlns="http://www.w3.org/2000/svg">
<path d="M19.5867 0.666992H8.41335C3.56002 0.666992 0.666687 3.56033 0.666687 8.41366V19.5737C0.666687 24.4403 3.56002 27.3337 8.41335 27.3337H19.5734C24.4267 27.3337 27.32 24.4403 27.32 19.587V8.41366C27.3334 3.56033 24.44 0.666992 19.5867 0.666992ZM12.6 21.347C12.2134 21.7337 11.48 22.107 10.9467 22.187L7.66669 22.6537C7.54669 22.667 7.42669 22.6803 7.30669 22.6803C6.76002 22.6803 6.25335 22.4937 5.89335 22.1337C5.45335 21.6937 5.26669 21.0537 5.37335 20.347L5.84002 17.067C5.92002 16.5203 6.28002 15.8003 6.68002 15.4137L12.6267 9.46699C12.7334 9.74699 12.84 10.027 12.9867 10.347C13.12 10.627 13.2667 10.9203 13.4267 11.187C13.56 11.4137 13.7067 11.627 13.8267 11.787C13.9734 12.0137 14.1467 12.227 14.2534 12.347C14.32 12.4403 14.3734 12.507 14.4 12.5337C14.7334 12.9337 15.12 13.307 15.4534 13.587C15.5467 13.6803 15.6 13.7337 15.6267 13.747C15.8267 13.907 16.0267 14.067 16.2 14.187C16.4134 14.347 16.6267 14.4937 16.8534 14.6137C17.12 14.7737 17.4134 14.9203 17.7067 15.067C18.0134 15.2003 18.2934 15.3203 18.5734 15.4137L12.6 21.347ZM21.16 12.787L19.9334 14.027C19.8534 14.107 19.7467 14.147 19.64 14.147C19.6 14.147 19.5467 14.147 19.52 14.1337C16.8134 13.3603 14.6534 11.2003 13.88 8.49366C13.84 8.34699 13.88 8.18699 13.9867 8.09366L15.2267 6.85366C17.2534 4.82699 19.1867 4.86699 21.1734 6.85366C22.1867 7.86699 22.68 8.84033 22.68 9.85366C22.6667 10.8137 22.1734 11.7737 21.16 12.787Z" fill="#0068E1"/>
</svg>
