<svg width="80" height="80" viewBox="0 0 80 80" fill="none" xmlns="http://www.w3.org/2000/svg">
<path d="M69.8999 3.33301H60.0999C57.1999 3.33301 55.0666 4.53301 54.0999 6.66634C53.5666 7.63301 53.3333 8.76634 53.3333 10.0997V19.8997C53.3333 24.133 55.8666 26.6663 60.0999 26.6663H69.8999C71.2332 26.6663 72.3666 26.433 73.3333 25.8997C75.4666 24.933 76.6666 22.7997 76.6666 19.8997V10.0997C76.6666 5.86634 74.1332 3.33301 69.8999 3.33301ZM73.0333 16.433C72.6999 16.7663 72.1999 16.9997 71.6666 17.033H66.9666V18.733L66.9999 21.6663C66.9666 22.233 66.7666 22.6997 66.3666 23.0997C66.0333 23.433 65.5333 23.6663 64.9999 23.6663C63.8999 23.6663 62.9999 22.7663 62.9999 21.6663V16.9997L58.3333 17.033C57.2333 17.033 56.3333 16.0997 56.3333 14.9997C56.3333 13.8997 57.2333 12.9997 58.3333 12.9997L61.2666 13.033H62.9999V8.36634C62.9999 7.26634 63.8999 6.33301 64.9999 6.33301C66.0999 6.33301 66.9999 7.26634 66.9999 8.36634L66.9666 10.733V12.9997H71.6666C72.7666 12.9997 73.6666 13.8997 73.6666 14.9997C73.6333 15.5663 73.3999 16.033 73.0333 16.433Z" fill="#B7D5F7"/>
<path d="M30 34.6001C34.3814 34.6001 37.9333 31.0482 37.9333 26.6667C37.9333 22.2853 34.3814 18.7334 30 18.7334C25.6185 18.7334 22.0667 22.2853 22.0667 26.6667C22.0667 31.0482 25.6185 34.6001 30 34.6001Z" fill="#B7D5F7"/>
<path d="M69.9001 26.667H68.3334V42.0337L67.9001 41.667C65.3001 39.4337 61.1001 39.4337 58.5001 41.667L44.6334 53.567C42.0334 55.8003 37.8334 55.8003 35.2334 53.567L34.1001 52.6337C31.7334 50.567 27.9667 50.367 25.3001 52.167L12.8334 60.5337C12.1001 58.667 11.6667 56.5003 11.6667 53.967V26.0337C11.6667 16.6337 16.6334 11.667 26.0334 11.667H53.3334V10.1003C53.3334 8.76699 53.5667 7.63366 54.1001 6.66699H26.0334C13.9001 6.66699 6.66675 13.9003 6.66675 26.0337V53.967C6.66675 57.6003 7.30008 60.767 8.53341 63.4337C11.4001 69.767 17.5334 73.3337 26.0334 73.3337H53.9668C66.1001 73.3337 73.3334 66.1003 73.3334 53.967V25.9003C72.3668 26.4337 71.2334 26.667 69.9001 26.667Z" fill="#B7D5F7"/>
</svg>
