<svg width="41" height="40" viewBox="0 0 41 40" fill="none" xmlns="http://www.w3.org/2000/svg">
<path d="M37.8351 20.3888C37.8351 18.9499 37.716 17.8999 37.4581 16.811H20.6923V23.3054H30.5334C30.3351 24.9193 29.2637 27.3499 26.8827 28.9832L26.8493 29.2006L32.1504 33.2251L32.5176 33.261C35.8906 30.2082 37.8351 25.7165 37.8351 20.3888Z" fill="#4285F4"/>
<path d="M20.6911 37.5C25.5125 37.5 29.56 35.9443 32.5165 33.261L26.8815 28.9831C25.3736 30.0137 23.3498 30.7331 20.6911 30.7331C15.969 30.7331 11.9611 27.6804 10.5324 23.4609L10.323 23.4784L4.81087 27.659L4.73878 27.8554C7.67525 33.572 13.707 37.5 20.6911 37.5Z" fill="#0068E1"/>
<path d="M10.5334 23.461C10.1564 22.3721 9.93828 21.2053 9.93828 19.9998C9.93828 18.7942 10.1564 17.6276 10.5136 16.5387L10.5036 16.3068L4.92241 12.0591L4.73981 12.1442C3.52955 14.5165 2.83509 17.1804 2.83509 19.9998C2.83509 22.8193 3.52955 25.4831 4.73981 27.8553L10.5334 23.461Z" fill="#FBBC05"/>
<path d="M20.6912 9.26662C24.0444 9.26662 26.3062 10.6861 27.596 11.8722L32.6356 7.05C29.5405 4.23056 25.5126 2.5 20.6912 2.5C13.707 2.5 7.67526 6.42775 4.73878 12.1444L10.5126 16.5389C11.9611 12.3194 15.969 9.26662 20.6912 9.26662Z" fill="#EB4335"/>
</svg>
