<svg width="48" height="48" viewBox="0 0 48 48" fill="none" xmlns="http://www.w3.org/2000/svg">
<rect width="48" height="48" rx="16" fill="#F95959" fill-opacity="0.2"/>
<path d="M29.3333 10.667H18.6667C14 10.667 12 13.3337 12 17.3337V30.667C12 34.667 14 37.3337 18.6667 37.3337H29.3333C34 37.3337 36 34.667 36 30.667V17.3337C36 13.3337 34 10.667 29.3333 10.667ZM18.6667 24.3337H24C24.5467 24.3337 25 24.787 25 25.3337C25 25.8803 24.5467 26.3337 24 26.3337H18.6667C18.12 26.3337 17.6667 25.8803 17.6667 25.3337C17.6667 24.787 18.12 24.3337 18.6667 24.3337ZM29.3333 31.667H18.6667C18.12 31.667 17.6667 31.2137 17.6667 30.667C17.6667 30.1203 18.12 29.667 18.6667 29.667H29.3333C29.88 29.667 30.3333 30.1203 30.3333 30.667C30.3333 31.2137 29.88 31.667 29.3333 31.667ZM32.6667 20.3337H30C27.9733 20.3337 26.3333 18.6937 26.3333 16.667V14.0003C26.3333 13.4537 26.7867 13.0003 27.3333 13.0003C27.88 13.0003 28.3333 13.4537 28.3333 14.0003V16.667C28.3333 17.587 29.08 18.3337 30 18.3337H32.6667C33.2133 18.3337 33.6667 18.787 33.6667 19.3337C33.6667 19.8803 33.2133 20.3337 32.6667 20.3337Z" fill="#F95959"/>
</svg>
