<svg width="12" height="14" viewBox="0 0 12 14" fill="none" xmlns="http://www.w3.org/2000/svg">
<path d="M6 13.5C6.21867 13.479 6.61967 13.2447 7.203 12.797C7.78633 12.3493 8.38533 11.7868 9 11.1095C9.78133 10.2242 10.3907 9.30233 10.828 8.344C11.2653 7.38567 11.4893 6.43767 11.5 5.5C11.4583 4 10.9245 2.79683 9.8985 1.8905C8.8725 0.984167 7.573 0.520667 6 0.5C4.427 0.521 3.1275 0.9845 2.1015 1.8905C1.0755 2.7965 0.541667 3.99967 0.5 5.5C0.510333 6.448 0.734333 7.3985 1.172 8.3515C1.60967 9.3045 2.219 10.2238 3 11.1095C3.61467 11.7865 4.21367 12.349 4.797 12.797C5.38033 13.245 5.78133 13.4793 6 13.5ZM6 6.703C6.28133 6.69267 6.51567 6.59367 6.703 6.406C6.89033 6.21833 6.98417 5.984 6.9845 5.703C6.98483 5.422 6.891 5.185 6.703 4.992C6.515 4.799 6.28067 4.70267 6 4.703C5.71933 4.70333 5.485 4.79967 5.297 4.992C5.109 5.18433 5.01517 5.42133 5.0155 5.703C5.01583 5.98467 5.10967 6.219 5.297 6.406C5.48433 6.593 5.71867 6.692 6 6.703ZM6 8.9065C5.09367 8.87517 4.3385 8.56 3.7345 7.961C3.1305 7.362 2.818 6.60933 2.797 5.703C2.818 4.79667 3.1305 4.0415 3.7345 3.4375C4.3385 2.8335 5.09367 2.521 6 2.5C6.90633 2.521 7.6615 2.8335 8.2655 3.4375C8.8695 4.0415 9.182 4.79667 9.203 5.703C9.182 6.60933 8.8695 7.362 8.2655 7.961C7.6615 8.56 6.90633 8.87517 6 8.9065Z" fill="#555555"/>
</svg>
