<svg width="48" height="48" viewBox="0 0 48 48" fill="none" xmlns="http://www.w3.org/2000/svg">
<rect width="48" height="48" rx="16" fill="#45D2FF" fill-opacity="0.3"/>
<g clip-path="url(#clip0_4753_18219)">
<path d="M35.4933 19.2663C34.0933 13.1063 28.72 10.333 24 10.333C24 10.333 24 10.333 23.9867 10.333C19.28 10.333 13.8933 13.093 12.4933 19.253C10.9333 26.133 15.1467 31.9597 18.96 35.6263C20.3733 36.9863 22.1867 37.6663 24 37.6663C25.8133 37.6663 27.6267 36.9863 29.0267 35.6263C32.84 31.9597 37.0533 26.1463 35.4933 19.2663ZM24 25.9463C21.68 25.9463 19.8 24.0663 19.8 21.7463C19.8 19.4263 21.68 17.5463 24 17.5463C26.32 17.5463 28.2 19.4263 28.2 21.7463C28.2 24.0663 26.32 25.9463 24 25.9463Z" fill="#45D2FF"/>
</g>
<defs>
<clipPath id="clip0_4753_18219">
<rect width="32" height="32" fill="white" transform="translate(8 8)"/>
</clipPath>
</defs>
</svg>
