<svg width="48" height="48" viewBox="0 0 48 48" fill="none" xmlns="http://www.w3.org/2000/svg">
<rect width="48" height="48" rx="16" fill="#F95959" fill-opacity="0.2"/>
<path d="M18.5067 24.0937C18.5067 23.547 18.96 23.0937 19.5067 23.0937H26.8133V11.8137C26.8 11.1737 26.2933 10.667 25.6533 10.667C17.8 10.667 12.32 16.147 12.32 24.0003C12.32 31.8537 17.8 37.3337 25.6533 37.3337C26.28 37.3337 26.8 36.827 26.8 36.187V25.0803H19.5067C18.9467 25.0937 18.5067 24.6403 18.5067 24.0937Z" fill="#F95959"/>
<path d="M35.3867 23.3869L31.6 19.5869C31.2133 19.2002 30.5733 19.2002 30.1867 19.5869C29.8 19.9735 29.8 20.6135 30.1867 21.0002L32.2667 23.0802H26.8V25.0802H32.2533L30.1733 27.1602C29.7867 27.5469 29.7867 28.1869 30.1733 28.5735C30.3733 28.7735 30.6267 28.8669 30.88 28.8669C31.1333 28.8669 31.3867 28.7735 31.5867 28.5735L35.3733 24.7735C35.7733 24.4002 35.7733 23.7735 35.3867 23.3869Z" fill="#F95959"/>
</svg>
