<svg width="21" height="18" viewBox="0 0 21 18" fill="none" xmlns="http://www.w3.org/2000/svg">
<path d="M15.8333 0.5H5.83331C2.83331 0.5 0.833313 2 0.833313 5.5V12.5C0.833313 16 2.83331 17.5 5.83331 17.5H15.8333C18.8333 17.5 20.8333 16 20.8333 12.5V5.5C20.8333 2 18.8333 0.5 15.8333 0.5ZM16.3033 6.59L13.1733 9.09C12.5133 9.62 11.6733 9.88 10.8333 9.88C9.99331 9.88 9.14331 9.62 8.49331 9.09L5.36331 6.59C5.04331 6.33 4.99331 5.85 5.24331 5.53C5.50331 5.21 5.97331 5.15 6.29331 5.41L9.42331 7.91C10.1833 8.52 11.4733 8.52 12.2333 7.91L15.3633 5.41C15.6833 5.15 16.1633 5.2 16.4133 5.53C16.6733 5.85 16.6233 6.33 16.3033 6.59Z" fill="#555555"/>
</svg>
