<svg width="48" height="48" viewBox="0 0 48 48" fill="none" xmlns="http://www.w3.org/2000/svg">
<rect width="48" height="48" rx="16" fill="#F8CE39" fill-opacity="0.3"/>
<path d="M29.5867 10.667H18.4133C13.56 10.667 10.6667 13.5603 10.6667 18.4137V29.5737C10.6667 34.4403 13.56 37.3337 18.4133 37.3337H29.5733C34.4267 37.3337 37.32 34.4403 37.32 29.587V18.4137C37.3333 13.5603 34.44 10.667 29.5867 10.667ZM29 29.0003H19C18.4533 29.0003 18 28.547 18 28.0003C18 27.4537 18.4533 27.0003 19 27.0003H29C29.5467 27.0003 30 27.4537 30 28.0003C30 28.547 29.5467 29.0003 29 29.0003ZM29 21.0003H19C18.4533 21.0003 18 20.547 18 20.0003C18 19.4537 18.4533 19.0003 19 19.0003H29C29.5467 19.0003 30 19.4537 30 20.0003C30 20.547 29.5467 21.0003 29 21.0003Z" fill="#F8CE39"/>
</svg>
