<svg width="347" height="313" viewBox="0 0 347 313" fill="none" xmlns="http://www.w3.org/2000/svg">
<g filter="url(#filter0_dd_4731_27176)">
<mask id="path-1-inside-1_4731_27176" fill="white">
<path d="M10 33C10 19.7452 20.7452 9 34 9H313C326.255 9 337 19.7452 337 33V278C337 291.255 326.255 302 313 302H34C20.7452 302 10 291.255 10 278V33Z"/>
</mask>
<path d="M10 33C10 19.7452 20.7452 9 34 9H313C326.255 9 337 19.7452 337 33V278C337 291.255 326.255 302 313 302H34C20.7452 302 10 291.255 10 278V33Z" fill="white"/>
<path d="M122.5 125.5L126.5 117L134 113.5C135.024 110.117 136.492 106.159 138.392 102C146.694 83.8235 163.238 61.7918 187 66.9999C191.833 62.9999 201.5 58.6999 201.5 73.4999C210.5 82.8333 221.4 109.9 193 143.5L196.5 154L193 162L122.5 125.5Z" fill="#1B80F5" fill-opacity="0.1"/>
<path d="M134 113.5L126.5 117L122.5 125.5L193 162L196.5 154L193 143.5C221.4 109.9 210.5 82.8333 201.5 73.4999C201.5 58.6999 191.833 62.9999 187 66.9999C163.238 61.7918 146.694 83.8235 138.392 102M134 113.5L160 125.5M134 113.5C135.024 110.117 136.492 106.159 138.392 102M134 113.5L138.392 102M138.392 102L152 109" stroke="#1B80F5" stroke-width="2" stroke-linecap="round"/>
<path d="M220.32 142.099C220.41 142.757 221.017 143.222 221.668 143.085C224.281 142.538 226.734 141.381 228.824 139.703C231.228 137.773 233.061 135.225 234.128 132.333C235.195 129.441 235.455 126.313 234.881 123.284C234.381 120.65 233.267 118.177 231.635 116.064C231.229 115.538 230.465 115.497 229.97 115.939C229.474 116.382 229.435 117.139 229.835 117.67C231.179 119.454 232.099 121.527 232.517 123.732C233.01 126.332 232.787 129.017 231.871 131.5C230.955 133.983 229.381 136.17 227.318 137.827C225.568 139.232 223.522 140.212 221.341 140.695C220.692 140.839 220.23 141.44 220.32 142.099Z" fill="#1B80F5" fill-opacity="0.5"/>
<path d="M223.075 149.283C223.197 150.178 224.023 150.809 224.906 150.624C228.456 149.88 231.789 148.309 234.629 146.028C237.895 143.406 240.386 139.945 241.836 136.015C243.285 132.086 243.639 127.836 242.858 123.721C242.18 120.142 240.666 116.783 238.449 113.912C237.897 113.197 236.859 113.142 236.186 113.742C235.512 114.343 235.459 115.372 236.002 116.093C237.829 118.517 239.079 121.334 239.647 124.33C240.317 127.862 240.014 131.511 238.769 134.884C237.525 138.257 235.386 141.229 232.583 143.48C230.205 145.389 227.425 146.72 224.462 147.377C223.581 147.572 222.953 148.389 223.075 149.283Z" fill="#1B80F5" fill-opacity="0.5"/>
<path d="M216.223 135.927C216.286 136.387 216.711 136.712 217.165 136.617C218.99 136.234 220.703 135.427 222.163 134.254C223.842 132.906 225.123 131.127 225.868 129.106C226.613 127.086 226.795 124.901 226.394 122.786C226.045 120.946 225.267 119.219 224.127 117.743C223.844 117.376 223.31 117.347 222.964 117.656C222.617 117.965 222.59 118.494 222.869 118.864C223.808 120.111 224.451 121.559 224.743 123.099C225.087 124.915 224.931 126.791 224.292 128.525C223.652 130.259 222.553 131.787 221.111 132.944C219.889 133.926 218.46 134.609 216.937 134.947C216.484 135.048 216.161 135.468 216.223 135.927Z" fill="#1B80F5" fill-opacity="0.5"/>
<path d="M134.773 67.2955C134.684 66.6373 134.076 66.1724 133.426 66.3086C130.813 66.856 128.36 68.0127 126.269 69.6913C123.866 71.6214 122.032 74.169 120.965 77.0613C119.898 79.9535 119.638 83.0814 120.213 86.1102C120.712 88.7441 121.826 91.2168 123.458 93.3299C123.864 93.8557 124.628 93.8968 125.124 93.4547C125.619 93.0125 125.659 92.2549 125.259 91.7244C123.914 89.9405 122.994 87.8671 122.576 85.6619C122.083 83.0619 122.306 80.3767 123.222 77.8938C124.138 75.4109 125.712 73.2239 127.775 71.567C129.525 70.1617 131.572 69.1825 133.752 68.699C134.401 68.5552 134.863 67.9537 134.773 67.2955Z" fill="#1B80F5" fill-opacity="0.5"/>
<path d="M132.018 60.1107C131.896 59.2165 131.07 58.5848 130.187 58.7699C126.637 59.5136 123.304 61.0851 120.464 63.3657C117.198 65.9881 114.707 69.4494 113.258 73.3789C111.808 77.3084 111.455 81.5582 112.235 85.6732C112.914 89.2518 114.428 92.6113 116.644 95.4822C117.196 96.1966 118.234 96.2524 118.908 95.6517C119.581 95.051 119.634 94.0217 119.091 93.301C117.265 90.8773 116.014 88.0602 115.446 85.0642C114.776 81.5316 115.08 77.8834 116.324 74.5101C117.568 71.1367 119.707 68.1654 122.51 65.9141C124.888 64.0048 127.668 62.6745 130.631 62.0175C131.512 61.8222 132.14 61.005 132.018 60.1107Z" fill="#1B80F5" fill-opacity="0.5"/>
<path d="M138.87 73.4666C138.807 73.0069 138.383 72.6821 137.928 72.7772C136.103 73.1596 134.39 73.9675 132.93 75.1399C131.251 76.4881 129.97 78.2675 129.225 80.2877C128.48 82.3078 128.298 84.4926 128.699 86.6081C129.048 88.4479 129.827 90.175 130.966 91.6509C131.25 92.0182 131.783 92.0469 132.13 91.7381C132.476 91.4292 132.503 90.9001 132.224 90.5295C131.285 89.2835 130.642 87.8353 130.35 86.295C130.006 84.479 130.162 82.6034 130.802 80.8692C131.441 79.135 132.541 77.6074 133.982 76.4501C135.204 75.4685 136.634 74.7846 138.157 74.4468C138.61 74.3464 138.933 73.9263 138.87 73.4666Z" fill="#1B80F5" fill-opacity="0.5"/>
<path d="M236 182.5C236 186.09 233.09 189 229.5 189C225.91 189 223 186.09 223 182.5C223 178.91 225.91 176 229.5 176C233.09 176 236 178.91 236 182.5ZM224.868 182.5C224.868 185.058 226.942 187.132 229.5 187.132C232.058 187.132 234.132 185.058 234.132 182.5C234.132 179.942 232.058 177.868 229.5 177.868C226.942 177.868 224.868 179.942 224.868 182.5Z" fill="#0068E1" fill-opacity="0.2"/>
<mask id="path-12-inside-2_4731_27176" fill="white">
<path d="M179.365 154.189C177.591 157.601 174.534 160.168 170.867 161.327C167.2 162.485 163.223 162.139 159.811 160.365C156.399 158.591 153.832 155.534 152.673 151.867C151.515 148.2 151.861 144.223 153.635 140.811L166.5 147.5L179.365 154.189Z"/>
</mask>
<path d="M179.365 154.189C177.591 157.601 174.534 160.168 170.867 161.327C167.2 162.485 163.223 162.139 159.811 160.365C156.399 158.591 153.832 155.534 152.673 151.867C151.515 148.2 151.861 144.223 153.635 140.811L166.5 147.5L179.365 154.189Z" fill="#1B80F5" fill-opacity="0.1" stroke="#1B80F5" stroke-width="4" mask="url(#path-12-inside-2_4731_27176)"/>
<path d="M126 39.5C126 35.9101 128.91 33 132.5 33C136.09 33 139 35.9101 139 39.5C139 43.0899 136.09 46 132.5 46C128.91 46 126 43.0899 126 39.5ZM137.132 39.5C137.132 36.9418 135.058 34.8679 132.5 34.8679C129.942 34.8679 127.868 36.9418 127.868 39.5C127.868 42.0582 129.942 44.1321 132.5 44.1321C135.058 44.1321 137.132 42.0582 137.132 39.5Z" fill="#0068E1" fill-opacity="0.2"/>
<path d="M264 146C264 147.657 262.657 149 261 149C259.343 149 258 147.657 258 146C258 144.343 259.343 143 261 143C262.657 143 264 144.343 264 146ZM258.862 146C258.862 147.181 259.819 148.138 261 148.138C262.181 148.138 263.138 147.181 263.138 146C263.138 144.819 262.181 143.862 261 143.862C259.819 143.862 258.862 144.819 258.862 146Z" fill="#0068E1" fill-opacity="0.2"/>
<path d="M83 76C83 74.3431 84.3431 73 86 73C87.6569 73 89 74.3431 89 76C89 77.6569 87.6569 79 86 79C84.3431 79 83 77.6569 83 76ZM88.1379 76C88.1379 74.8193 87.1807 73.8621 86 73.8621C84.8193 73.8621 83.8621 74.8193 83.8621 76C83.8621 77.1807 84.8193 78.1379 86 78.1379C87.1807 78.1379 88.1379 77.1807 88.1379 76Z" fill="#0068E1" fill-opacity="0.2"/>
<path d="M43.728 223.816H46.968L54.6 236.272H54.744L54.6 232.96V223.816H57.288V241H54.456L46.44 227.92H46.296L46.44 231.232V241H43.728V223.816ZM65.8316 228.856C66.7276 228.856 67.5516 229.016 68.3036 229.336C69.0556 229.64 69.7036 230.072 70.2476 230.632C70.7916 231.192 71.2156 231.856 71.5196 232.624C71.8236 233.392 71.9756 234.224 71.9756 235.12C71.9756 236.016 71.8236 236.848 71.5196 237.616C71.2156 238.384 70.7916 239.048 70.2476 239.608C69.7036 240.168 69.0556 240.608 68.3036 240.928C67.5516 241.232 66.7276 241.384 65.8316 241.384C64.9356 241.384 64.1116 241.232 63.3596 240.928C62.6076 240.608 61.9596 240.168 61.4156 239.608C60.8716 239.048 60.4476 238.384 60.1436 237.616C59.8396 236.848 59.6876 236.016 59.6876 235.12C59.6876 234.224 59.8396 233.392 60.1436 232.624C60.4476 231.856 60.8716 231.192 61.4156 230.632C61.9596 230.072 62.6076 229.64 63.3596 229.336C64.1116 229.016 64.9356 228.856 65.8316 228.856ZM65.8316 238.912C66.2796 238.912 66.7116 238.824 67.1276 238.648C67.5436 238.472 67.9116 238.224 68.2316 237.904C68.5676 237.584 68.8316 237.192 69.0236 236.728C69.2156 236.248 69.3116 235.712 69.3116 235.12C69.3116 234.528 69.2156 234 69.0236 233.536C68.8316 233.056 68.5676 232.656 68.2316 232.336C67.9116 232.016 67.5436 231.768 67.1276 231.592C66.7116 231.416 66.2796 231.328 65.8316 231.328C65.3836 231.328 64.9516 231.416 64.5356 231.592C64.1196 231.768 63.7436 232.016 63.4076 232.336C63.0876 232.656 62.8316 233.056 62.6396 233.536C62.4476 234 62.3516 234.528 62.3516 235.12C62.3516 235.712 62.4476 236.248 62.6396 236.728C62.8316 237.192 63.0876 237.584 63.4076 237.904C63.7436 238.224 64.1196 238.472 64.5356 238.648C64.9516 238.824 65.3836 238.912 65.8316 238.912ZM79.6577 223.816H82.8977L90.5297 236.272H90.6737L90.5297 232.96V223.816H93.2177V241H90.3857L82.3697 227.92H82.2257L82.3697 231.232V241H79.6577V223.816ZM101.761 228.856C102.657 228.856 103.481 229.016 104.233 229.336C104.985 229.64 105.633 230.072 106.177 230.632C106.721 231.192 107.145 231.856 107.449 232.624C107.753 233.392 107.905 234.224 107.905 235.12C107.905 236.016 107.753 236.848 107.449 237.616C107.145 238.384 106.721 239.048 106.177 239.608C105.633 240.168 104.985 240.608 104.233 240.928C103.481 241.232 102.657 241.384 101.761 241.384C100.865 241.384 100.041 241.232 99.2893 240.928C98.5373 240.608 97.8893 240.168 97.3453 239.608C96.8013 239.048 96.3773 238.384 96.0733 237.616C95.7693 236.848 95.6173 236.016 95.6173 235.12C95.6173 234.224 95.7693 233.392 96.0733 232.624C96.3773 231.856 96.8013 231.192 97.3453 230.632C97.8893 230.072 98.5373 229.64 99.2893 229.336C100.041 229.016 100.865 228.856 101.761 228.856ZM101.761 238.912C102.209 238.912 102.641 238.824 103.057 238.648C103.473 238.472 103.841 238.224 104.161 237.904C104.497 237.584 104.761 237.192 104.953 236.728C105.145 236.248 105.241 235.712 105.241 235.12C105.241 234.528 105.145 234 104.953 233.536C104.761 233.056 104.497 232.656 104.161 232.336C103.841 232.016 103.473 231.768 103.057 231.592C102.641 231.416 102.209 231.328 101.761 231.328C101.313 231.328 100.881 231.416 100.465 231.592C100.049 231.768 99.6733 232.016 99.3373 232.336C99.0173 232.656 98.7613 233.056 98.5693 233.536C98.3773 234 98.2813 234.528 98.2813 235.12C98.2813 235.712 98.3773 236.248 98.5693 236.728C98.7613 237.192 99.0173 237.584 99.3373 237.904C99.6733 238.224 100.049 238.472 100.465 238.648C100.881 238.824 101.313 238.912 101.761 238.912ZM110.874 231.592H108.81V229.24H110.874V225.64H113.538V229.24H116.442V231.592H113.538V236.824C113.538 237.112 113.57 237.376 113.634 237.616C113.698 237.856 113.794 238.056 113.922 238.216C114.194 238.52 114.538 238.672 114.954 238.672C115.21 238.672 115.41 238.656 115.554 238.624C115.698 238.576 115.85 238.512 116.01 238.432L116.826 240.784C116.49 240.912 116.138 241.008 115.77 241.072C115.402 241.152 114.986 241.192 114.522 241.192C113.962 241.192 113.466 241.104 113.034 240.928C112.602 240.752 112.226 240.512 111.906 240.208C111.218 239.52 110.874 238.584 110.874 237.4V231.592ZM120.302 227.152C119.79 227.152 119.358 226.976 119.006 226.624C118.67 226.272 118.502 225.848 118.502 225.352C118.502 224.856 118.67 224.432 119.006 224.08C119.358 223.728 119.79 223.552 120.302 223.552C120.798 223.552 121.214 223.728 121.55 224.08C121.902 224.432 122.078 224.856 122.078 225.352C122.078 225.848 121.902 226.272 121.55 226.624C121.214 226.976 120.798 227.152 120.302 227.152ZM118.958 241V229.24H121.622V241H118.958ZM128.564 241H125.9V231.592H123.74V229.24H125.9V227.824C125.9 227.168 126.004 226.584 126.212 226.072C126.42 225.544 126.708 225.104 127.076 224.752C127.46 224.384 127.908 224.104 128.42 223.912C128.948 223.72 129.516 223.624 130.124 223.624C130.492 223.624 130.804 223.656 131.06 223.72C131.332 223.768 131.572 223.832 131.78 223.912L131.372 226.36C131.228 226.296 131.068 226.248 130.892 226.216C130.732 226.168 130.516 226.144 130.244 226.144C129.78 226.144 129.38 226.304 129.044 226.624C128.724 226.944 128.564 227.408 128.564 228.016V229.24H136.1V241H133.436V231.592H128.564V241ZM134.78 227.152C134.268 227.152 133.836 226.976 133.484 226.624C133.148 226.272 132.98 225.848 132.98 225.352C132.98 224.856 133.148 224.432 133.484 224.08C133.836 223.728 134.268 223.552 134.78 223.552C135.276 223.552 135.692 223.728 136.028 224.08C136.38 224.432 136.556 224.856 136.556 225.352C136.556 225.848 136.38 226.272 136.028 226.624C135.692 226.976 135.276 227.152 134.78 227.152ZM149.724 238C149.5 238.464 149.22 238.904 148.884 239.32C148.564 239.72 148.18 240.08 147.732 240.4C147.3 240.704 146.796 240.944 146.22 241.12C145.644 241.296 145.012 241.384 144.324 241.384C143.428 241.384 142.604 241.232 141.852 240.928C141.1 240.608 140.452 240.168 139.908 239.608C139.364 239.048 138.94 238.384 138.636 237.616C138.332 236.848 138.18 236.016 138.18 235.12C138.18 234.224 138.332 233.392 138.636 232.624C138.94 231.856 139.364 231.192 139.908 230.632C140.452 230.072 141.1 229.64 141.852 229.336C142.604 229.016 143.428 228.856 144.324 228.856C145.012 228.856 145.636 228.944 146.196 229.12C146.772 229.296 147.276 229.544 147.708 229.864C148.156 230.168 148.54 230.528 148.86 230.944C149.18 231.344 149.436 231.768 149.628 232.216L147.18 233.248C146.908 232.64 146.532 232.168 146.052 231.832C145.572 231.496 144.964 231.328 144.228 231.328C143.78 231.328 143.348 231.424 142.932 231.616C142.532 231.792 142.172 232.048 141.852 232.384C141.548 232.704 141.3 233.096 141.108 233.56C140.932 234.024 140.844 234.544 140.844 235.12C140.844 235.696 140.932 236.216 141.108 236.68C141.3 237.144 141.548 237.544 141.852 237.88C142.172 238.2 142.532 238.456 142.932 238.648C143.348 238.824 143.78 238.912 144.228 238.912C144.964 238.912 145.588 238.744 146.1 238.408C146.628 238.056 147.036 237.576 147.324 236.968L149.724 238ZM158.972 239.56H158.828C158.476 240.024 158.02 240.448 157.46 240.832C156.9 241.2 156.188 241.384 155.324 241.384C154.7 241.384 154.116 241.28 153.572 241.072C153.028 240.88 152.556 240.608 152.156 240.256C151.756 239.888 151.436 239.464 151.196 238.984C150.972 238.488 150.86 237.944 150.86 237.352C150.86 236.728 150.98 236.168 151.22 235.672C151.476 235.176 151.82 234.76 152.252 234.424C152.7 234.088 153.228 233.832 153.836 233.656C154.444 233.464 155.1 233.368 155.804 233.368C156.588 233.368 157.244 233.448 157.772 233.608C158.3 233.752 158.7 233.888 158.972 234.016V233.56C158.972 233.208 158.892 232.88 158.732 232.576C158.588 232.272 158.38 232.016 158.108 231.808C157.852 231.584 157.556 231.416 157.22 231.304C156.884 231.176 156.532 231.112 156.164 231.112C155.572 231.112 155.036 231.232 154.556 231.472C154.092 231.696 153.676 232.064 153.308 232.576L151.196 231.184C151.756 230.416 152.452 229.84 153.284 229.456C154.116 229.056 155.06 228.856 156.116 228.856C157.86 228.856 159.204 229.288 160.148 230.152C161.108 231.016 161.588 232.248 161.588 233.848V241H158.972V239.56ZM158.972 236.104C158.62 235.896 158.228 235.728 157.796 235.6C157.364 235.472 156.868 235.408 156.308 235.408C155.476 235.408 154.812 235.6 154.316 235.984C153.82 236.368 153.572 236.832 153.572 237.376C153.572 237.664 153.636 237.92 153.764 238.144C153.892 238.352 154.052 238.536 154.244 238.696C154.452 238.856 154.684 238.976 154.94 239.056C155.212 239.136 155.484 239.176 155.756 239.176C156.188 239.176 156.596 239.096 156.98 238.936C157.38 238.76 157.724 238.536 158.012 238.264C158.3 237.976 158.532 237.648 158.708 237.28C158.884 236.912 158.972 236.52 158.972 236.104ZM165.156 231.592H163.092V229.24H165.156V225.64H167.82V229.24H170.724V231.592H167.82V236.824C167.82 237.112 167.852 237.376 167.916 237.616C167.98 237.856 168.076 238.056 168.204 238.216C168.476 238.52 168.82 238.672 169.236 238.672C169.492 238.672 169.692 238.656 169.836 238.624C169.98 238.576 170.132 238.512 170.292 238.432L171.108 240.784C170.772 240.912 170.42 241.008 170.052 241.072C169.684 241.152 169.268 241.192 168.804 241.192C168.244 241.192 167.748 241.104 167.316 240.928C166.884 240.752 166.508 240.512 166.188 240.208C165.5 239.52 165.156 238.584 165.156 237.4V231.592ZM174.583 227.152C174.071 227.152 173.639 226.976 173.287 226.624C172.951 226.272 172.783 225.848 172.783 225.352C172.783 224.856 172.951 224.432 173.287 224.08C173.639 223.728 174.071 223.552 174.583 223.552C175.079 223.552 175.495 223.728 175.831 224.08C176.183 224.432 176.359 224.856 176.359 225.352C176.359 225.848 176.183 226.272 175.831 226.624C175.495 226.976 175.079 227.152 174.583 227.152ZM173.239 241V229.24H175.903V241H173.239ZM184.144 228.856C185.04 228.856 185.864 229.016 186.616 229.336C187.368 229.64 188.016 230.072 188.56 230.632C189.104 231.192 189.528 231.856 189.832 232.624C190.136 233.392 190.288 234.224 190.288 235.12C190.288 236.016 190.136 236.848 189.832 237.616C189.528 238.384 189.104 239.048 188.56 239.608C188.016 240.168 187.368 240.608 186.616 240.928C185.864 241.232 185.04 241.384 184.144 241.384C183.248 241.384 182.424 241.232 181.672 240.928C180.92 240.608 180.272 240.168 179.728 239.608C179.184 239.048 178.76 238.384 178.456 237.616C178.152 236.848 178 236.016 178 235.12C178 234.224 178.152 233.392 178.456 232.624C178.76 231.856 179.184 231.192 179.728 230.632C180.272 230.072 180.92 229.64 181.672 229.336C182.424 229.016 183.248 228.856 184.144 228.856ZM184.144 238.912C184.592 238.912 185.024 238.824 185.44 238.648C185.856 238.472 186.224 238.224 186.544 237.904C186.88 237.584 187.144 237.192 187.336 236.728C187.528 236.248 187.624 235.712 187.624 235.12C187.624 234.528 187.528 234 187.336 233.536C187.144 233.056 186.88 232.656 186.544 232.336C186.224 232.016 185.856 231.768 185.44 231.592C185.024 231.416 184.592 231.328 184.144 231.328C183.696 231.328 183.264 231.416 182.848 231.592C182.432 231.768 182.056 232.016 181.72 232.336C181.4 232.656 181.144 233.056 180.952 233.536C180.76 234 180.664 234.528 180.664 235.12C180.664 235.712 180.76 236.248 180.952 236.728C181.144 237.192 181.4 237.584 181.72 237.904C182.056 238.224 182.432 238.472 182.848 238.648C183.264 238.824 183.696 238.912 184.144 238.912ZM194.598 230.824H194.742C195.094 230.264 195.59 229.8 196.23 229.432C196.886 229.048 197.622 228.856 198.438 228.856C199.926 228.856 201.038 229.304 201.774 230.2C202.51 231.08 202.878 232.256 202.878 233.728V241H200.214V234.088C200.214 233.064 199.974 232.352 199.494 231.952C199.03 231.536 198.414 231.328 197.646 231.328C197.182 231.328 196.774 231.424 196.422 231.616C196.07 231.808 195.766 232.072 195.51 232.408C195.254 232.728 195.062 233.104 194.934 233.536C194.806 233.952 194.742 234.392 194.742 234.856V241H192.078V229.24H194.598V230.824ZM215.408 223.816H218.528L224.984 241H221.984L220.424 236.584H213.512L211.952 241H208.952L215.408 223.816ZM219.512 234.112L217.712 229.048L217.04 227.032H216.896L216.224 229.048L214.424 234.112H219.512ZM224.182 229.24H227.182L230.35 237.544H230.47L233.71 229.24H236.638L231.718 241H229.054L224.182 229.24ZM245.292 239.56H245.148C244.796 240.024 244.34 240.448 243.78 240.832C243.22 241.2 242.508 241.384 241.644 241.384C241.02 241.384 240.436 241.28 239.892 241.072C239.348 240.88 238.876 240.608 238.476 240.256C238.076 239.888 237.756 239.464 237.516 238.984C237.292 238.488 237.18 237.944 237.18 237.352C237.18 236.728 237.3 236.168 237.54 235.672C237.796 235.176 238.14 234.76 238.572 234.424C239.02 234.088 239.548 233.832 240.156 233.656C240.764 233.464 241.42 233.368 242.124 233.368C242.908 233.368 243.564 233.448 244.092 233.608C244.62 233.752 245.02 233.888 245.292 234.016V233.56C245.292 233.208 245.212 232.88 245.052 232.576C244.908 232.272 244.7 232.016 244.428 231.808C244.172 231.584 243.876 231.416 243.54 231.304C243.204 231.176 242.852 231.112 242.484 231.112C241.892 231.112 241.356 231.232 240.876 231.472C240.412 231.696 239.996 232.064 239.628 232.576L237.516 231.184C238.076 230.416 238.772 229.84 239.604 229.456C240.436 229.056 241.38 228.856 242.436 228.856C244.18 228.856 245.524 229.288 246.468 230.152C247.428 231.016 247.908 232.248 247.908 233.848V241H245.292V239.56ZM245.292 236.104C244.94 235.896 244.548 235.728 244.116 235.6C243.684 235.472 243.188 235.408 242.628 235.408C241.796 235.408 241.132 235.6 240.636 235.984C240.14 236.368 239.892 236.832 239.892 237.376C239.892 237.664 239.956 237.92 240.084 238.144C240.212 238.352 240.372 238.536 240.564 238.696C240.772 238.856 241.004 238.976 241.26 239.056C241.532 239.136 241.804 239.176 242.076 239.176C242.508 239.176 242.916 239.096 243.3 238.936C243.7 238.76 244.044 238.536 244.332 238.264C244.62 237.976 244.852 237.648 245.028 237.28C245.204 236.912 245.292 236.52 245.292 236.104ZM251.95 227.152C251.438 227.152 251.006 226.976 250.654 226.624C250.318 226.272 250.15 225.848 250.15 225.352C250.15 224.856 250.318 224.432 250.654 224.08C251.006 223.728 251.438 223.552 251.95 223.552C252.446 223.552 252.862 223.728 253.198 224.08C253.55 224.432 253.726 224.856 253.726 225.352C253.726 225.848 253.55 226.272 253.198 226.624C252.862 226.976 252.446 227.152 251.95 227.152ZM250.606 241V229.24H253.27V241H250.606ZM256.157 241V223.816H258.821V241H256.157ZM268.823 239.56H268.679C268.327 240.024 267.871 240.448 267.311 240.832C266.751 241.2 266.039 241.384 265.175 241.384C264.551 241.384 263.967 241.28 263.423 241.072C262.879 240.88 262.407 240.608 262.007 240.256C261.607 239.888 261.287 239.464 261.047 238.984C260.823 238.488 260.711 237.944 260.711 237.352C260.711 236.728 260.831 236.168 261.071 235.672C261.327 235.176 261.671 234.76 262.103 234.424C262.551 234.088 263.079 233.832 263.687 233.656C264.295 233.464 264.951 233.368 265.655 233.368C266.439 233.368 267.095 233.448 267.623 233.608C268.151 233.752 268.551 233.888 268.823 234.016V233.56C268.823 233.208 268.743 232.88 268.583 232.576C268.439 232.272 268.231 232.016 267.959 231.808C267.703 231.584 267.407 231.416 267.071 231.304C266.735 231.176 266.383 231.112 266.015 231.112C265.423 231.112 264.887 231.232 264.407 231.472C263.943 231.696 263.527 232.064 263.159 232.576L261.047 231.184C261.607 230.416 262.303 229.84 263.135 229.456C263.967 229.056 264.911 228.856 265.967 228.856C267.711 228.856 269.055 229.288 269.999 230.152C270.959 231.016 271.439 232.248 271.439 233.848V241H268.823V239.56ZM268.823 236.104C268.471 235.896 268.079 235.728 267.647 235.6C267.215 235.472 266.719 235.408 266.159 235.408C265.327 235.408 264.663 235.6 264.167 235.984C263.671 236.368 263.423 236.832 263.423 237.376C263.423 237.664 263.487 237.92 263.615 238.144C263.743 238.352 263.903 238.536 264.095 238.696C264.303 238.856 264.535 238.976 264.791 239.056C265.063 239.136 265.335 239.176 265.607 239.176C266.039 239.176 266.447 239.096 266.831 238.936C267.231 238.76 267.575 238.536 267.863 238.264C268.151 237.976 268.383 237.648 268.559 237.28C268.735 236.912 268.823 236.52 268.823 236.104ZM273.946 223.816H276.61V229.12L276.466 230.752H276.61C276.93 230.24 277.418 229.8 278.074 229.432C278.73 229.048 279.514 228.856 280.426 228.856C281.178 228.856 281.89 229.016 282.562 229.336C283.25 229.64 283.85 230.072 284.362 230.632C284.874 231.192 285.282 231.856 285.586 232.624C285.89 233.376 286.042 234.208 286.042 235.12C286.042 236.032 285.89 236.872 285.586 237.64C285.282 238.392 284.874 239.048 284.362 239.608C283.85 240.168 283.25 240.608 282.562 240.928C281.89 241.232 281.178 241.384 280.426 241.384C279.514 241.384 278.73 241.2 278.074 240.832C277.418 240.448 276.93 240 276.61 239.488H276.466V241H273.946V223.816ZM279.922 238.912C280.37 238.912 280.802 238.824 281.218 238.648C281.65 238.472 282.018 238.224 282.322 237.904C282.642 237.568 282.898 237.168 283.09 236.704C283.282 236.24 283.378 235.712 283.378 235.12C283.378 234.528 283.282 234 283.09 233.536C282.898 233.072 282.642 232.68 282.322 232.36C282.018 232.024 281.65 231.768 281.218 231.592C280.802 231.416 280.37 231.328 279.922 231.328C279.458 231.328 279.018 231.416 278.602 231.592C278.186 231.768 277.818 232.016 277.498 232.336C277.194 232.656 276.946 233.056 276.754 233.536C276.562 234 276.466 234.528 276.466 235.12C276.466 235.712 276.562 236.248 276.754 236.728C276.946 237.192 277.194 237.584 277.498 237.904C277.818 238.224 278.186 238.472 278.602 238.648C279.018 238.824 279.458 238.912 279.922 238.912ZM287.938 241V223.816H290.602V241H287.938ZM304.06 238.192C303.564 239.104 302.86 239.864 301.948 240.472C301.036 241.08 299.916 241.384 298.588 241.384C297.708 241.384 296.892 241.232 296.14 240.928C295.404 240.608 294.764 240.168 294.22 239.608C293.676 239.048 293.252 238.392 292.948 237.64C292.644 236.872 292.492 236.032 292.492 235.12C292.492 234.272 292.636 233.472 292.924 232.72C293.212 231.952 293.612 231.288 294.124 230.728C294.652 230.152 295.284 229.696 296.02 229.36C296.756 229.024 297.572 228.856 298.468 228.856C299.38 228.856 300.188 229.008 300.892 229.312C301.612 229.616 302.22 230.04 302.716 230.584C303.212 231.128 303.588 231.784 303.844 232.552C304.116 233.32 304.252 234.16 304.252 235.072C304.252 235.152 304.252 235.224 304.252 235.288C304.236 235.368 304.228 235.44 304.228 235.504C304.212 235.568 304.204 235.632 304.204 235.696H295.156C295.204 236.256 295.34 236.744 295.564 237.16C295.788 237.576 296.06 237.92 296.38 238.192C296.716 238.464 297.084 238.664 297.484 238.792C297.884 238.92 298.276 238.984 298.66 238.984C299.428 238.984 300.06 238.8 300.556 238.432C301.052 238.064 301.46 237.608 301.78 237.064L304.06 238.192ZM301.588 233.656C301.556 233.416 301.476 233.152 301.348 232.864C301.236 232.56 301.052 232.288 300.796 232.048C300.556 231.792 300.236 231.576 299.836 231.4C299.452 231.224 298.98 231.136 298.42 231.136C297.652 231.136 296.988 231.368 296.428 231.832C295.884 232.28 295.516 232.888 295.324 233.656H301.588Z" fill="#151415"/>
<path d="M71.8282 274H70.5402V263.976H72.1082L76.9802 271.774H77.0362L76.9802 269.842V263.976H78.2682V274H76.9242L71.8282 265.824H71.7722L71.8282 267.756V274ZM83.1443 274.224C82.1363 274.224 81.3056 273.879 80.6523 273.188C79.9989 272.497 79.6723 271.625 79.6723 270.57C79.6723 269.525 79.9896 268.657 80.6243 267.966C81.2589 267.266 82.0709 266.916 83.0603 266.916C84.0776 266.916 84.8849 267.247 85.4823 267.91C86.0889 268.563 86.3923 269.483 86.3923 270.668L86.3783 270.808H80.9883C81.0069 271.48 81.2309 272.021 81.6603 272.432C82.0896 272.843 82.6029 273.048 83.2003 273.048C84.0216 273.048 84.6656 272.637 85.1323 271.816L86.2803 272.376C85.9723 272.955 85.5429 273.407 84.9923 273.734C84.4509 274.061 83.8349 274.224 83.1443 274.224ZM81.0863 269.744H85.0203C84.9829 269.268 84.7869 268.876 84.4323 268.568C84.0869 268.251 83.6203 268.092 83.0323 268.092C82.5469 268.092 82.1269 268.241 81.7723 268.54C81.4269 268.839 81.1983 269.24 81.0863 269.744ZM97.1494 267.14L94.9374 274H93.6214L91.9134 268.736L90.2194 274H88.9174L86.7054 267.14H88.0494L89.5754 272.32H89.5894L91.2834 267.14H92.6134L94.3074 272.32H94.3214L95.8334 267.14H97.1494ZM101.064 267.14H102.296V268.092H102.352C102.548 267.756 102.847 267.476 103.248 267.252C103.659 267.028 104.084 266.916 104.522 266.916C105.362 266.916 106.006 267.159 106.454 267.644C106.912 268.12 107.14 268.801 107.14 269.688V274H105.852V269.772C105.824 268.652 105.26 268.092 104.158 268.092C103.645 268.092 103.216 268.302 102.87 268.722C102.525 269.133 102.352 269.627 102.352 270.206V274H101.064V267.14ZM108.26 270.57C108.26 269.515 108.591 268.643 109.254 267.952C109.926 267.261 110.771 266.916 111.788 266.916C112.805 266.916 113.645 267.261 114.308 267.952C114.98 268.643 115.316 269.515 115.316 270.57C115.316 271.634 114.98 272.507 114.308 273.188C113.645 273.879 112.805 274.224 111.788 274.224C110.771 274.224 109.926 273.879 109.254 273.188C108.591 272.497 108.26 271.625 108.26 270.57ZM109.548 270.57C109.548 271.307 109.763 271.905 110.192 272.362C110.621 272.819 111.153 273.048 111.788 273.048C112.423 273.048 112.955 272.819 113.384 272.362C113.813 271.905 114.028 271.307 114.028 270.57C114.028 269.842 113.813 269.249 113.384 268.792C112.945 268.325 112.413 268.092 111.788 268.092C111.163 268.092 110.631 268.325 110.192 268.792C109.763 269.249 109.548 269.842 109.548 270.57ZM118.997 274.112C118.437 274.112 117.97 273.939 117.597 273.594C117.233 273.249 117.046 272.768 117.037 272.152V268.316H115.833V267.14H117.037V265.04H118.325V267.14H120.005V268.316H118.325V271.732C118.325 272.189 118.414 272.502 118.591 272.67C118.768 272.829 118.969 272.908 119.193 272.908C119.296 272.908 119.394 272.899 119.487 272.88C119.59 272.852 119.683 272.819 119.767 272.782L120.173 273.93C119.837 274.051 119.445 274.112 118.997 274.112ZM122.965 264.774C122.965 265.026 122.876 265.241 122.699 265.418C122.521 265.595 122.307 265.684 122.055 265.684C121.803 265.684 121.588 265.595 121.411 265.418C121.233 265.241 121.145 265.026 121.145 264.774C121.145 264.522 121.233 264.307 121.411 264.13C121.588 263.953 121.803 263.864 122.055 263.864C122.307 263.864 122.521 263.953 122.699 264.13C122.876 264.307 122.965 264.522 122.965 264.774ZM122.699 267.14V274H121.411V267.14H122.699ZM131.137 264.774C131.137 265.026 131.048 265.241 130.871 265.418C130.693 265.595 130.479 265.684 130.227 265.684C129.975 265.684 129.76 265.595 129.583 265.418C129.405 265.241 129.317 265.026 129.317 264.774C129.317 264.522 129.405 264.307 129.583 264.13C129.76 263.953 129.975 263.864 130.227 263.864C130.479 263.864 130.693 263.953 130.871 264.13C131.048 264.307 131.137 264.522 131.137 264.774ZM126.503 268.316V274H125.215V268.316H123.927V267.14H125.215V266.146C125.215 265.81 125.271 265.502 125.383 265.222C125.504 264.942 125.667 264.704 125.873 264.508C126.078 264.303 126.321 264.144 126.601 264.032C126.89 263.92 127.203 263.864 127.539 263.864C128.005 263.864 128.388 263.943 128.687 264.102L128.337 265.236C128.113 265.124 127.861 265.068 127.581 265.068C127.263 265.068 127.002 265.18 126.797 265.404C126.601 265.619 126.503 265.908 126.503 266.272V267.14H130.871V274H129.583V268.316H126.503ZM135.618 274.224C134.601 274.224 133.756 273.879 133.084 273.188C132.422 272.479 132.09 271.606 132.09 270.57C132.09 269.515 132.422 268.643 133.084 267.952C133.756 267.261 134.601 266.916 135.618 266.916C136.318 266.916 136.93 267.093 137.452 267.448C137.975 267.793 138.367 268.274 138.628 268.89L137.452 269.38C137.088 268.521 136.449 268.092 135.534 268.092C134.946 268.092 134.438 268.33 134.008 268.806C133.588 269.282 133.378 269.87 133.378 270.57C133.378 271.27 133.588 271.858 134.008 272.334C134.438 272.81 134.946 273.048 135.534 273.048C136.477 273.048 137.14 272.619 137.522 271.76L138.67 272.25C138.418 272.866 138.022 273.351 137.48 273.706C136.948 274.051 136.328 274.224 135.618 274.224ZM140.666 271.9C140.666 272.236 140.806 272.516 141.086 272.74C141.376 272.964 141.712 273.076 142.094 273.076C142.636 273.076 143.116 272.875 143.536 272.474C143.966 272.073 144.18 271.601 144.18 271.06C143.779 270.743 143.219 270.584 142.5 270.584C141.978 270.584 141.539 270.71 141.184 270.962C140.839 271.214 140.666 271.527 140.666 271.9ZM142.332 266.916C143.284 266.916 144.036 267.173 144.586 267.686C145.137 268.19 145.412 268.885 145.412 269.772V274H144.18V273.048H144.124C143.592 273.832 142.883 274.224 141.996 274.224C141.24 274.224 140.606 274 140.092 273.552C139.588 273.104 139.336 272.544 139.336 271.872C139.336 271.163 139.602 270.598 140.134 270.178C140.676 269.758 141.394 269.548 142.29 269.548C143.056 269.548 143.686 269.688 144.18 269.968V269.674C144.18 269.226 144.003 268.848 143.648 268.54C143.294 268.223 142.878 268.064 142.402 268.064C141.684 268.064 141.114 268.367 140.694 268.974L139.56 268.26C140.186 267.364 141.11 266.916 142.332 266.916ZM149.444 274.112C148.884 274.112 148.418 273.939 148.044 273.594C147.68 273.249 147.494 272.768 147.484 272.152V268.316H146.28V267.14H147.484V265.04H148.772V267.14H150.452V268.316H148.772V271.732C148.772 272.189 148.861 272.502 149.038 272.67C149.216 272.829 149.416 272.908 149.64 272.908C149.743 272.908 149.841 272.899 149.934 272.88C150.037 272.852 150.13 272.819 150.214 272.782L150.62 273.93C150.284 274.051 149.892 274.112 149.444 274.112ZM153.412 264.774C153.412 265.026 153.323 265.241 153.146 265.418C152.969 265.595 152.754 265.684 152.502 265.684C152.25 265.684 152.035 265.595 151.858 265.418C151.681 265.241 151.592 265.026 151.592 264.774C151.592 264.522 151.681 264.307 151.858 264.13C152.035 263.953 152.25 263.864 152.502 263.864C152.754 263.864 152.969 263.953 153.146 264.13C153.323 264.307 153.412 264.522 153.412 264.774ZM153.146 267.14V274H151.858V267.14H153.146ZM154.362 270.57C154.362 269.515 154.693 268.643 155.356 267.952C156.028 267.261 156.872 266.916 157.89 266.916C158.907 266.916 159.747 267.261 160.41 267.952C161.082 268.643 161.418 269.515 161.418 270.57C161.418 271.634 161.082 272.507 160.41 273.188C159.747 273.879 158.907 274.224 157.89 274.224C156.872 274.224 156.028 273.879 155.356 273.188C154.693 272.497 154.362 271.625 154.362 270.57ZM155.65 270.57C155.65 271.307 155.864 271.905 156.294 272.362C156.723 272.819 157.255 273.048 157.89 273.048C158.524 273.048 159.056 272.819 159.486 272.362C159.915 271.905 160.13 271.307 160.13 270.57C160.13 269.842 159.915 269.249 159.486 268.792C159.047 268.325 158.515 268.092 157.89 268.092C157.264 268.092 156.732 268.325 156.294 268.792C155.864 269.249 155.65 269.842 155.65 270.57ZM162.451 267.14H163.683V268.092H163.739C163.935 267.756 164.234 267.476 164.635 267.252C165.046 267.028 165.47 266.916 165.909 266.916C166.749 266.916 167.393 267.159 167.841 267.644C168.298 268.12 168.527 268.801 168.527 269.688V274H167.239V269.772C167.211 268.652 166.646 268.092 165.545 268.092C165.032 268.092 164.602 268.302 164.257 268.722C163.912 269.133 163.739 269.627 163.739 270.206V274H162.451V267.14ZM175.221 272.096C175.221 272.693 174.959 273.197 174.437 273.608C173.914 274.019 173.256 274.224 172.463 274.224C171.772 274.224 171.165 274.047 170.643 273.692C170.12 273.328 169.747 272.852 169.523 272.264L170.671 271.774C170.839 272.185 171.081 272.507 171.399 272.74C171.725 272.964 172.08 273.076 172.463 273.076C172.873 273.076 173.214 272.987 173.485 272.81C173.765 272.633 173.905 272.423 173.905 272.18C173.905 271.741 173.569 271.419 172.897 271.214L171.721 270.92C170.386 270.584 169.719 269.94 169.719 268.988C169.719 268.363 169.971 267.863 170.475 267.49C170.988 267.107 171.641 266.916 172.435 266.916C173.041 266.916 173.587 267.061 174.073 267.35C174.567 267.639 174.913 268.027 175.109 268.512L173.961 268.988C173.83 268.699 173.615 268.475 173.317 268.316C173.027 268.148 172.701 268.064 172.337 268.064C172.001 268.064 171.697 268.148 171.427 268.316C171.165 268.484 171.035 268.689 171.035 268.932C171.035 269.324 171.403 269.604 172.141 269.772L173.177 270.038C174.539 270.374 175.221 271.06 175.221 272.096ZM189.134 267.14L186.922 274H185.606L183.898 268.736L182.204 274H180.902L178.69 267.14H180.034L181.56 272.32H181.574L183.268 267.14H184.598L186.292 272.32H186.306L187.818 267.14H189.134ZM191.638 264.774C191.638 265.026 191.55 265.241 191.372 265.418C191.195 265.595 190.98 265.684 190.728 265.684C190.476 265.684 190.262 265.595 190.084 265.418C189.907 265.241 189.818 265.026 189.818 264.774C189.818 264.522 189.907 264.307 190.084 264.13C190.262 263.953 190.476 263.864 190.728 263.864C190.98 263.864 191.195 263.953 191.372 264.13C191.55 264.307 191.638 264.522 191.638 264.774ZM191.372 267.14V274H190.084V267.14H191.372ZM194.337 263.976V274H193.049V263.976H194.337ZM197.194 263.976V274H195.906V263.976H197.194ZM202.778 271.9C202.778 272.236 202.918 272.516 203.198 272.74C203.487 272.964 203.823 273.076 204.206 273.076C204.747 273.076 205.228 272.875 205.648 272.474C206.077 272.073 206.292 271.601 206.292 271.06C205.89 270.743 205.33 270.584 204.612 270.584C204.089 270.584 203.65 270.71 203.296 270.962C202.95 271.214 202.778 271.527 202.778 271.9ZM204.444 266.916C205.396 266.916 206.147 267.173 206.698 267.686C207.248 268.19 207.524 268.885 207.524 269.772V274H206.292V273.048H206.236C205.704 273.832 204.994 274.224 204.108 274.224C203.352 274.224 202.717 274 202.204 273.552C201.7 273.104 201.448 272.544 201.448 271.872C201.448 271.163 201.714 270.598 202.246 270.178C202.787 269.758 203.506 269.548 204.402 269.548C205.167 269.548 205.797 269.688 206.292 269.968V269.674C206.292 269.226 206.114 268.848 205.76 268.54C205.405 268.223 204.99 268.064 204.514 268.064C203.795 268.064 203.226 268.367 202.806 268.974L201.672 268.26C202.297 267.364 203.221 266.916 204.444 266.916ZM212.336 273.048C212.952 273.048 213.47 272.815 213.89 272.348C214.31 271.891 214.52 271.298 214.52 270.57C214.52 269.851 214.31 269.259 213.89 268.792C213.47 268.325 212.952 268.092 212.336 268.092C211.711 268.092 211.188 268.325 210.768 268.792C210.358 269.259 210.152 269.851 210.152 270.57C210.152 271.298 210.358 271.895 210.768 272.362C211.188 272.819 211.711 273.048 212.336 273.048ZM212.546 274.224C212.042 274.224 211.58 274.117 211.16 273.902C210.75 273.687 210.432 273.403 210.208 273.048H210.152L210.208 274V277.024H208.92V267.14H210.152V268.092H210.208C210.432 267.737 210.75 267.453 211.16 267.238C211.58 267.023 212.042 266.916 212.546 266.916C213.452 266.916 214.217 267.271 214.842 267.98C215.486 268.699 215.808 269.562 215.808 270.57C215.808 271.587 215.486 272.451 214.842 273.16C214.217 273.869 213.452 274.224 212.546 274.224ZM220.211 273.048C220.827 273.048 221.345 272.815 221.765 272.348C222.185 271.891 222.395 271.298 222.395 270.57C222.395 269.851 222.185 269.259 221.765 268.792C221.345 268.325 220.827 268.092 220.211 268.092C219.586 268.092 219.063 268.325 218.643 268.792C218.233 269.259 218.027 269.851 218.027 270.57C218.027 271.298 218.233 271.895 218.643 272.362C219.063 272.819 219.586 273.048 220.211 273.048ZM220.421 274.224C219.917 274.224 219.455 274.117 219.035 273.902C218.625 273.687 218.307 273.403 218.083 273.048H218.027L218.083 274V277.024H216.795V267.14H218.027V268.092H218.083C218.307 267.737 218.625 267.453 219.035 267.238C219.455 267.023 219.917 266.916 220.421 266.916C221.327 266.916 222.092 267.271 222.717 267.98C223.361 268.699 223.683 269.562 223.683 270.57C223.683 271.587 223.361 272.451 222.717 273.16C222.092 273.869 221.327 274.224 220.421 274.224ZM227.943 274.224C226.935 274.224 226.104 273.879 225.451 273.188C224.798 272.497 224.471 271.625 224.471 270.57C224.471 269.525 224.788 268.657 225.423 267.966C226.058 267.266 226.87 266.916 227.859 266.916C228.876 266.916 229.684 267.247 230.281 267.91C230.888 268.563 231.191 269.483 231.191 270.668L231.177 270.808H225.787C225.806 271.48 226.03 272.021 226.459 272.432C226.888 272.843 227.402 273.048 227.999 273.048C228.82 273.048 229.464 272.637 229.931 271.816L231.079 272.376C230.771 272.955 230.342 273.407 229.791 273.734C229.25 274.061 228.634 274.224 227.943 274.224ZM225.885 269.744H229.819C229.782 269.268 229.586 268.876 229.231 268.568C228.886 268.251 228.419 268.092 227.831 268.092C227.346 268.092 226.926 268.241 226.571 268.54C226.226 268.839 225.997 269.24 225.885 269.744ZM233.375 271.9C233.375 272.236 233.515 272.516 233.795 272.74C234.085 272.964 234.421 273.076 234.803 273.076C235.345 273.076 235.825 272.875 236.245 272.474C236.675 272.073 236.889 271.601 236.889 271.06C236.488 270.743 235.928 270.584 235.209 270.584C234.687 270.584 234.248 270.71 233.893 270.962C233.548 271.214 233.375 271.527 233.375 271.9ZM235.041 266.916C235.993 266.916 236.745 267.173 237.295 267.686C237.846 268.19 238.121 268.885 238.121 269.772V274H236.889V273.048H236.833C236.301 273.832 235.592 274.224 234.705 274.224C233.949 274.224 233.315 274 232.801 273.552C232.297 273.104 232.045 272.544 232.045 271.872C232.045 271.163 232.311 270.598 232.843 270.178C233.385 269.758 234.103 269.548 234.999 269.548C235.765 269.548 236.395 269.688 236.889 269.968V269.674C236.889 269.226 236.712 268.848 236.357 268.54C236.003 268.223 235.587 268.064 235.111 268.064C234.393 268.064 233.823 268.367 233.403 268.974L232.269 268.26C232.895 267.364 233.819 266.916 235.041 266.916ZM240.862 274H239.574V267.14H240.806V268.26H240.862C240.993 267.896 241.259 267.588 241.66 267.336C242.071 267.075 242.472 266.944 242.864 266.944C243.237 266.944 243.555 267 243.816 267.112L243.424 268.358C243.265 268.293 243.013 268.26 242.668 268.26C242.183 268.26 241.758 268.456 241.394 268.848C241.039 269.24 240.862 269.697 240.862 270.22V274ZM247.736 263.976H249.024V267.14L248.968 268.092H249.024C249.22 267.756 249.519 267.476 249.92 267.252C250.331 267.028 250.755 266.916 251.194 266.916C252.034 266.916 252.678 267.159 253.126 267.644C253.583 268.12 253.812 268.801 253.812 269.688V274H252.524V269.94C252.524 268.708 251.978 268.092 250.886 268.092C250.363 268.092 249.92 268.311 249.556 268.75C249.201 269.179 249.024 269.683 249.024 270.262V274H247.736V263.976ZM258.404 274.224C257.396 274.224 256.565 273.879 255.912 273.188C255.259 272.497 254.932 271.625 254.932 270.57C254.932 269.525 255.249 268.657 255.884 267.966C256.519 267.266 257.331 266.916 258.32 266.916C259.337 266.916 260.145 267.247 260.742 267.91C261.349 268.563 261.652 269.483 261.652 270.668L261.638 270.808H256.248C256.267 271.48 256.491 272.021 256.92 272.432C257.349 272.843 257.863 273.048 258.46 273.048C259.281 273.048 259.925 272.637 260.392 271.816L261.54 272.376C261.232 272.955 260.803 273.407 260.252 273.734C259.711 274.061 259.095 274.224 258.404 274.224ZM256.346 269.744H260.28C260.243 269.268 260.047 268.876 259.692 268.568C259.347 268.251 258.88 268.092 258.292 268.092C257.807 268.092 257.387 268.241 257.032 268.54C256.687 268.839 256.458 269.24 256.346 269.744ZM264.118 274H262.83V267.14H264.062V268.26H264.118C264.249 267.896 264.515 267.588 264.916 267.336C265.327 267.075 265.728 266.944 266.12 266.944C266.493 266.944 266.811 267 267.072 267.112L266.68 268.358C266.521 268.293 266.269 268.26 265.924 268.26C265.439 268.26 265.014 268.456 264.65 268.848C264.295 269.24 264.118 269.697 264.118 270.22V274ZM270.572 274.224C269.564 274.224 268.733 273.879 268.08 273.188C267.427 272.497 267.1 271.625 267.1 270.57C267.1 269.525 267.417 268.657 268.052 267.966C268.687 267.266 269.499 266.916 270.488 266.916C271.505 266.916 272.313 267.247 272.91 267.91C273.517 268.563 273.82 269.483 273.82 270.668L273.806 270.808H268.416C268.435 271.48 268.659 272.021 269.088 272.432C269.517 272.843 270.031 273.048 270.628 273.048C271.449 273.048 272.093 272.637 272.56 271.816L273.708 272.376C273.4 272.955 272.971 273.407 272.42 273.734C271.879 274.061 271.263 274.224 270.572 274.224ZM268.514 269.744H272.448C272.411 269.268 272.215 268.876 271.86 268.568C271.515 268.251 271.048 268.092 270.46 268.092C269.975 268.092 269.555 268.241 269.2 268.54C268.855 268.839 268.626 269.24 268.514 269.744ZM276.79 273.132C276.79 273.393 276.697 273.617 276.51 273.804C276.333 273.991 276.109 274.084 275.838 274.084C275.577 274.084 275.353 273.991 275.166 273.804C274.979 273.617 274.886 273.393 274.886 273.132C274.886 272.861 274.979 272.637 275.166 272.46C275.353 272.273 275.577 272.18 275.838 272.18C276.109 272.18 276.333 272.273 276.51 272.46C276.697 272.637 276.79 272.861 276.79 273.132Z" fill="#555555"/>
<path d="M10 9H337H10ZM337 278C337 293.464 324.464 306 309 306H38C22.536 306 10 293.464 10 278C10 289.046 20.7452 298 34 298H313C326.255 298 337 289.046 337 278ZM10 302V9V302ZM337 9V302V9Z" fill="#E0E0E0" mask="url(#path-1-inside-1_4731_27176)"/>
</g>
<defs>
<filter id="filter0_dd_4731_27176" x="0" y="0" width="347" height="313" filterUnits="userSpaceOnUse" color-interpolation-filters="sRGB">
<feFlood flood-opacity="0" result="BackgroundImageFix"/>
<feColorMatrix in="SourceAlpha" type="matrix" values="0 0 0 0 0 0 0 0 0 0 0 0 0 0 0 0 0 0 127 0" result="hardAlpha"/>
<feMorphology radius="2" operator="dilate" in="SourceAlpha" result="effect1_dropShadow_4731_27176"/>
<feOffset dy="1"/>
<feGaussianBlur stdDeviation="4"/>
<feColorMatrix type="matrix" values="0 0 0 0 0.0784314 0 0 0 0 0.0784314 0 0 0 0 0.0784314 0 0 0 0.08 0"/>
<feBlend mode="normal" in2="BackgroundImageFix" result="effect1_dropShadow_4731_27176"/>
<feColorMatrix in="SourceAlpha" type="matrix" values="0 0 0 0 0 0 0 0 0 0 0 0 0 0 0 0 0 0 127 0" result="hardAlpha"/>
<feOffset/>
<feGaussianBlur stdDeviation="0.5"/>
<feColorMatrix type="matrix" values="0 0 0 0 0.0784314 0 0 0 0 0.0784314 0 0 0 0 0.0784314 0 0 0 0.08 0"/>
<feBlend mode="normal" in2="effect1_dropShadow_4731_27176" result="effect2_dropShadow_4731_27176"/>
<feBlend mode="normal" in="SourceGraphic" in2="effect2_dropShadow_4731_27176" result="shape"/>
</filter>
</defs>
</svg>
