<svg width="16" height="17" viewBox="0 0 16 17" fill="none" xmlns="http://www.w3.org/2000/svg">
<path d="M15.5067 12.49L14.5067 10.83C14.2967 10.46 14.1067 9.76 14.1067 9.35V6.82C14.1067 4.47 12.7267 2.44 10.7367 1.49C10.2167 0.57 9.25669 0 8.15669 0C7.06669 0 6.08669 0.59 5.56669 1.52C3.61669 2.49 2.26669 4.5 2.26669 6.82V9.35C2.26669 9.76 2.07669 10.46 1.86669 10.82L0.856691 12.49C0.456691 13.16 0.366691 13.9 0.616691 14.58C0.856691 15.25 1.42669 15.77 2.16669 16.02C4.10669 16.68 6.14669 17 8.18669 17C10.2267 17 12.2667 16.68 14.2067 16.03C14.9067 15.8 15.4467 15.27 15.7067 14.58C15.9667 13.89 15.8967 13.13 15.5067 12.49Z" fill="#555555"/>
</svg>
