<svg width="48" height="48" viewBox="0 0 48 48" fill="none" xmlns="http://www.w3.org/2000/svg">
<rect width="48" height="48" rx="16" fill="#FF9E45" fill-opacity="0.2"/>
<path d="M24 10.667C20.5067 10.667 17.6667 13.507 17.6667 17.0003C17.6667 20.427 20.3467 23.2003 23.84 23.3203C23.9467 23.307 24.0534 23.307 24.1334 23.3203C24.16 23.3203 24.1734 23.3203 24.2 23.3203C24.2134 23.3203 24.2134 23.3203 24.2267 23.3203C27.64 23.2003 30.32 20.427 30.3334 17.0003C30.3334 13.507 27.4934 10.667 24 10.667Z" fill="#FF9E45"/>
<path d="M30.7733 26.8668C27.0533 24.3868 20.9867 24.3868 17.24 26.8668C15.5467 28.0002 14.6133 29.5335 14.6133 31.1735C14.6133 32.8135 15.5467 34.3335 17.2267 35.4535C19.0933 36.7068 21.5467 37.3335 24 37.3335C26.4533 37.3335 28.9067 36.7068 30.7733 35.4535C32.4533 34.3202 33.3867 32.8002 33.3867 31.1468C33.3733 29.5068 32.4533 27.9868 30.7733 26.8668Z" fill="#FF9E45"/>
</svg>
