<svg width="48" height="48" viewBox="0 0 48 48" fill="none" xmlns="http://www.w3.org/2000/svg">
<rect width="48" height="48" rx="16" fill="#0068E1" fill-opacity="0.2"/>
<path d="M34.8 17.2537C34.8 17.9737 34.4133 18.627 33.8 18.9603L31.48 20.2137L29.5067 21.267L25.4133 23.4803C24.9733 23.7203 24.4933 23.8403 24 23.8403C23.5067 23.8403 23.0267 23.7203 22.5867 23.4803L14.2 18.9603C13.5867 18.627 13.2 17.9737 13.2 17.2537C13.2 16.5337 13.5867 15.8803 14.2 15.547L16.8267 14.1337L18.92 13.0003L22.5867 11.027C23.4667 10.547 24.5333 10.547 25.4133 11.027L33.8 15.547C34.4133 15.8803 34.8 16.5337 34.8 17.2537Z" fill="#0068E1"/>
<path d="M21.2 25.0535L13.4 21.1602C12.8 20.8535 12.1067 20.8935 11.5333 21.2402C10.96 21.5869 10.6267 22.2002 10.6267 22.8669V30.2402C10.6267 31.5202 11.3333 32.6669 12.48 33.2402L20.28 37.1335C20.5467 37.2669 20.84 37.3335 21.1333 37.3335C21.48 37.3335 21.8267 37.2402 22.1333 37.0402C22.7067 36.6935 23.04 36.0802 23.04 35.4135V28.0402C23.0533 26.7735 22.3467 25.6269 21.2 25.0535Z" fill="#0068E1"/>
<path d="M37.3733 22.8665V30.2398C37.3733 31.5065 36.6667 32.6532 35.52 33.2265L27.72 37.1332C27.4533 37.2665 27.16 37.3332 26.8667 37.3332C26.52 37.3332 26.1733 37.2398 25.8533 37.0398C25.2933 36.6932 24.9467 36.0798 24.9467 35.4132V28.0532C24.9467 26.7732 25.6533 25.6265 26.8 25.0532L29.6667 23.6265L31.6667 22.6265L34.6 21.1598C35.2 20.8532 35.8933 20.8798 36.4667 21.2398C37.0267 21.5865 37.3733 22.1998 37.3733 22.8665Z" fill="#0068E1"/>
<path d="M31.48 20.2133L29.5067 21.2667L16.8267 14.1333L18.92 13L31.16 19.9067C31.2933 19.9867 31.4 20.0933 31.48 20.2133Z" fill="#0068E1"/>
<path d="M31.6667 22.627V25.6536C31.6667 26.2003 31.2133 26.6536 30.6667 26.6536C30.12 26.6536 29.6667 26.2003 29.6667 25.6536V23.627L31.6667 22.627Z" fill="#0068E1"/>
</svg>
