<svg width="48" height="48" viewBox="0 0 48 48" fill="none" xmlns="http://www.w3.org/2000/svg">
<rect width="48" height="48" rx="16" fill="#00B181" fill-opacity="0.2"/>
<path d="M35.96 9.33301H32.04C30.3467 9.33301 29.3333 10.3463 29.3333 12.0397V15.9597C29.3333 17.653 30.3467 18.6663 32.04 18.6663H35.96C37.6533 18.6663 38.6667 17.653 38.6667 15.9597V12.0397C38.6667 10.3463 37.6533 9.33301 35.96 9.33301ZM36.84 12.5997L33.68 16.293C33.56 16.4397 33.3733 16.533 33.1867 16.533C33.1733 16.533 33.1733 16.533 33.16 16.533C32.9733 16.533 32.8 16.4663 32.6667 16.333L31.2 14.893C30.9333 14.6263 30.9333 14.1863 31.2 13.9197C31.4667 13.653 31.9067 13.6397 32.1733 13.9197L33.1067 14.8397L35.7733 11.7197C36.0267 11.4263 36.4533 11.3997 36.7467 11.6397C37.0533 11.8797 37.08 12.3197 36.84 12.5997Z" fill="#00B181"/>
<path d="M20 21.8398C21.7526 21.8398 23.1733 20.4191 23.1733 18.6665C23.1733 16.9139 21.7526 15.4932 20 15.4932C18.2474 15.4932 16.8267 16.9139 16.8267 18.6665C16.8267 20.4191 18.2474 21.8398 20 21.8398Z" fill="#00B181"/>
<path d="M35.96 18.667H35.3333V24.8137L35.16 24.667C34.12 23.7737 32.44 23.7737 31.4 24.667L25.8533 29.427C24.8133 30.3203 23.1333 30.3203 22.0933 29.427L21.64 29.0537C20.6933 28.227 19.1867 28.147 18.12 28.867L13.1333 32.2137C12.84 31.467 12.6667 30.6003 12.6667 29.587V18.4137C12.6667 14.6537 14.6533 12.667 18.4133 12.667H29.3333V12.0403C29.3333 11.507 29.4267 11.0537 29.64 10.667H18.4133C13.56 10.667 10.6667 13.5603 10.6667 18.4137V29.587C10.6667 31.0403 10.92 32.307 11.4133 33.3737C12.56 35.907 15.0133 37.3337 18.4133 37.3337H29.5867C34.44 37.3337 37.3333 34.4403 37.3333 29.587V18.3603C36.9467 18.5737 36.4933 18.667 35.96 18.667Z" fill="#00B181"/>
</svg>
