<svg width="24" height="24" viewBox="0 0 24 24" fill="none" xmlns="http://www.w3.org/2000/svg">
<path fill-rule="evenodd" clip-rule="evenodd" d="M12 24C18.6274 24 24 18.6274 24 12C24 5.37258 18.6274 0 12 0C5.37258 0 0 5.37258 0 12C0 18.6274 5.37258 24 12 24ZM12 17.6022C8.90598 17.6022 6.39778 15.094 6.39778 12C6.39778 8.90598 8.90598 6.39778 12 6.39778C15.094 6.39778 17.6022 8.90598 17.6022 12C17.6022 15.094 15.094 17.6022 12 17.6022Z" fill="#0050AD"/>
<path fill-rule="evenodd" clip-rule="evenodd" d="M10.1205 23.8537C4.38589 22.9516 0 17.988 0 12C0 6.012 4.38589 1.04838 10.1205 0.146335C13.9932 0.981774 17.0223 5.30108 17.4486 10.6915C16.8593 8.22863 14.6434 6.39778 12 6.39778C8.90598 6.39778 6.39778 8.90598 6.39778 12C6.39778 15.094 8.90598 17.6022 12 17.6022C14.6434 17.6022 16.8593 15.7714 17.4486 13.3085C17.0223 18.6989 13.9932 23.0182 10.1205 23.8537Z" fill="#72ACEE"/>
<path fill-rule="evenodd" clip-rule="evenodd" d="M9.12243 7.19181C7.49018 8.17087 6.39778 9.95762 6.39778 11.9995C6.39778 14.0414 7.49018 15.8281 9.12243 16.8072C8.06344 18.5666 6.44099 20.1056 4.42105 21.3037C1.72296 19.1033 0 15.7526 0 11.9995C0 8.24641 1.72296 4.89573 4.42105 2.69529C6.44099 3.89338 8.06344 5.43245 9.12243 7.19181Z" fill="#CCE1F9"/>
</svg>
