<svg width="33" height="32" viewBox="0 0 33 32" fill="none" xmlns="http://www.w3.org/2000/svg">
<rect x="1.375" y="1" width="30" height="30" rx="15" fill="#40C08C"/>
<path d="M22.375 22.667H10.375C10.1017 22.667 9.875 22.4403 9.875 22.167C9.875 21.8937 10.1017 21.667 10.375 21.667H22.375C22.6483 21.667 22.875 21.8937 22.875 22.167C22.875 22.4403 22.6483 22.667 22.375 22.667Z" fill="white"/>
<path d="M21.0549 10.3204C19.7616 9.0271 18.4949 8.99376 17.1682 10.3204L16.3616 11.1271C16.2949 11.1938 16.2682 11.3004 16.2949 11.3938C16.8016 13.1604 18.2149 14.5738 19.9816 15.0804C20.0082 15.0871 20.0349 15.0938 20.0616 15.0938C20.1349 15.0938 20.2016 15.0671 20.2549 15.0138L21.0549 14.2071C21.7149 13.5538 22.0349 12.9204 22.0349 12.2804C22.0416 11.6204 21.7216 10.9804 21.0549 10.3204Z" fill="white"/>
<path d="M18.7816 15.6865C18.5882 15.5932 18.4016 15.4999 18.2216 15.3932C18.0749 15.3065 17.9349 15.2132 17.7949 15.1132C17.6816 15.0399 17.5482 14.9332 17.4216 14.8265C17.4082 14.8199 17.3616 14.7799 17.3082 14.7265C17.0882 14.5399 16.8416 14.2999 16.6216 14.0332C16.6016 14.0199 16.5682 13.9732 16.5216 13.9132C16.4549 13.8332 16.3416 13.6999 16.2416 13.5465C16.1616 13.4465 16.0682 13.2999 15.9816 13.1532C15.8749 12.9732 15.7816 12.7932 15.6882 12.6065C15.5658 12.3443 15.2217 12.2664 15.0171 12.471L11.2682 16.2199C11.1816 16.3065 11.1016 16.4732 11.0816 16.5865L10.7216 19.1399C10.6549 19.5932 10.7816 20.0199 11.0616 20.3065C11.3016 20.5399 11.6349 20.6665 11.9949 20.6665C12.0749 20.6665 12.1549 20.6599 12.2349 20.6465L14.7949 20.2865C14.9149 20.2665 15.0816 20.1865 15.1616 20.0999L18.9166 16.3448C19.1171 16.1443 19.0418 15.7993 18.7816 15.6865Z" fill="white"/>
<rect x="1.375" y="1" width="30" height="30" rx="15" stroke="white" stroke-width="2"/>
</svg>
