<svg width="48" height="48" viewBox="0 0 48 48" fill="none" xmlns="http://www.w3.org/2000/svg">
<rect width="48" height="48" rx="16" fill="#0068E1" fill-opacity="0.2"/>
<path d="M34.8 20.2936C32.3867 20.2936 31.4 18.5869 32.6 16.4936C33.2934 15.2802 32.88 13.7336 31.6667 13.0402L29.36 11.7202C28.3067 11.0936 26.9467 11.4669 26.32 12.5202L26.1734 12.7736C24.9734 14.8669 23 14.8669 21.7867 12.7736L21.64 12.5202C21.04 11.4669 19.68 11.0936 18.6267 11.7202L16.32 13.0402C15.1067 13.7336 14.6934 15.2936 15.3867 16.5069C16.6 18.5869 15.6134 20.2936 13.2 20.2936C11.8134 20.2936 10.6667 21.4269 10.6667 22.8269V25.1736C10.6667 26.5602 11.8 27.7069 13.2 27.7069C15.6134 27.7069 16.6 29.4136 15.3867 31.5069C14.6934 32.7202 15.1067 34.2669 16.32 34.9602L18.6267 36.2802C19.68 36.9069 21.04 36.5336 21.6667 35.4802L21.8134 35.2269C23.0134 33.1336 24.9867 33.1336 26.2 35.2269L26.3467 35.4802C26.9734 36.5336 28.3334 36.9069 29.3867 36.2802L31.6934 34.9602C32.9067 34.2669 33.32 32.7069 32.6267 31.5069C31.4134 29.4136 32.4 27.7069 34.8134 27.7069C36.2 27.7069 37.3467 26.5736 37.3467 25.1736V22.8269C37.3334 21.4402 36.2 20.2936 34.8 20.2936ZM24 28.3336C21.6134 28.3336 19.6667 26.3869 19.6667 24.0002C19.6667 21.6136 21.6134 19.6669 24 19.6669C26.3867 19.6669 28.3334 21.6136 28.3334 24.0002C28.3334 26.3869 26.3867 28.3336 24 28.3336Z" fill="#0068E1"/>
</svg>
