<svg width="48" height="48" viewBox="0 0 48 48" fill="none" xmlns="http://www.w3.org/2000/svg">
<rect width="48" height="48" rx="16" fill="#9745FF" fill-opacity="0.2"/>
<path d="M29.5867 10.667H18.4133C13.56 10.667 10.6667 13.5603 10.6667 18.4137V29.587C10.6667 34.4403 13.56 37.3337 18.4133 37.3337H29.5867C34.44 37.3337 37.3333 34.4403 37.3333 29.587V18.4137C37.3333 13.5603 34.44 10.667 29.5867 10.667ZM21.2933 27.867L18.2933 30.867C18.0933 31.067 17.84 31.1603 17.5867 31.1603C17.3333 31.1603 17.0667 31.067 16.88 30.867L15.88 29.867C15.48 29.4803 15.48 28.8403 15.88 28.4537C16.2667 28.067 16.8933 28.067 17.2933 28.4537L17.5867 28.747L19.88 26.4537C20.2667 26.067 20.8933 26.067 21.2933 26.4537C21.68 26.8403 21.68 27.4803 21.2933 27.867ZM21.2933 18.5337L18.2933 21.5337C18.0933 21.7337 17.84 21.827 17.5867 21.827C17.3333 21.827 17.0667 21.7337 16.88 21.5337L15.88 20.5337C15.48 20.147 15.48 19.507 15.88 19.1203C16.2667 18.7337 16.8933 18.7337 17.2933 19.1203L17.5867 19.4137L19.88 17.1203C20.2667 16.7337 20.8933 16.7337 21.2933 17.1203C21.68 17.507 21.68 18.147 21.2933 18.5337ZM31.4133 30.1603H24.4133C23.8667 30.1603 23.4133 29.707 23.4133 29.1603C23.4133 28.6137 23.8667 28.1603 24.4133 28.1603H31.4133C31.9733 28.1603 32.4133 28.6137 32.4133 29.1603C32.4133 29.707 31.9733 30.1603 31.4133 30.1603ZM31.4133 20.827H24.4133C23.8667 20.827 23.4133 20.3737 23.4133 19.827C23.4133 19.2803 23.8667 18.827 24.4133 18.827H31.4133C31.9733 18.827 32.4133 19.2803 32.4133 19.827C32.4133 20.3737 31.9733 20.827 31.4133 20.827Z" fill="#9745FF"/>
</svg>
