<svg width="48" height="48" viewBox="0 0 48 48" fill="none" xmlns="http://www.w3.org/2000/svg">
<rect width="48" height="48" rx="16" fill="#FF9E45" fill-opacity="0.2"/>
<path d="M30.3333 12.747V10.667C30.3333 10.1203 29.88 9.66699 29.3333 9.66699C28.7867 9.66699 28.3333 10.1203 28.3333 10.667V12.667H19.6667V10.667C19.6667 10.1203 19.2133 9.66699 18.6667 9.66699C18.12 9.66699 17.6667 10.1203 17.6667 10.667V12.747C14.0667 13.0803 12.32 15.227 12.0533 18.4137C12.0267 18.8003 12.3467 19.1203 12.72 19.1203H35.28C35.6667 19.1203 35.9867 18.787 35.9467 18.4137C35.68 15.227 33.9333 13.0803 30.3333 12.747Z" fill="#FF9E45"/>
<path d="M34.6667 21.1201H13.3333C12.6 21.1201 12 21.7201 12 22.4535V30.6668C12 34.6668 14 37.3335 18.6667 37.3335H29.3333C34 37.3335 36 34.6668 36 30.6668V22.4535C36 21.7201 35.4 21.1201 34.6667 21.1201ZM20.28 32.2801C20.2133 32.3334 20.1467 32.4001 20.08 32.4401C20 32.4935 19.92 32.5335 19.84 32.5601C19.76 32.6001 19.68 32.6268 19.6 32.6401C19.5067 32.6535 19.4267 32.6668 19.3333 32.6668C19.16 32.6668 18.9867 32.6268 18.8267 32.5601C18.6533 32.4935 18.52 32.4001 18.3867 32.2801C18.1467 32.0268 18 31.6801 18 31.3335C18 30.9868 18.1467 30.6401 18.3867 30.3868C18.52 30.2668 18.6533 30.1735 18.8267 30.1068C19.0667 30.0001 19.3333 29.9735 19.6 30.0268C19.68 30.0401 19.76 30.0668 19.84 30.1068C19.92 30.1335 20 30.1735 20.08 30.2268C20.1467 30.2801 20.2133 30.3335 20.28 30.3868C20.52 30.6401 20.6667 30.9868 20.6667 31.3335C20.6667 31.6801 20.52 32.0268 20.28 32.2801ZM20.28 27.6135C20.0267 27.8535 19.68 28.0001 19.3333 28.0001C18.9867 28.0001 18.64 27.8535 18.3867 27.6135C18.1467 27.3601 18 27.0135 18 26.6668C18 26.3201 18.1467 25.9735 18.3867 25.7201C18.76 25.3468 19.3467 25.2268 19.84 25.4401C20.0133 25.5068 20.16 25.6001 20.28 25.7201C20.52 25.9735 20.6667 26.3201 20.6667 26.6668C20.6667 27.0135 20.52 27.3601 20.28 27.6135ZM24.9467 32.2801C24.6933 32.5201 24.3467 32.6668 24 32.6668C23.6533 32.6668 23.3067 32.5201 23.0533 32.2801C22.8133 32.0268 22.6667 31.6801 22.6667 31.3335C22.6667 30.9868 22.8133 30.6401 23.0533 30.3868C23.5467 29.8935 24.4533 29.8935 24.9467 30.3868C25.1867 30.6401 25.3333 30.9868 25.3333 31.3335C25.3333 31.6801 25.1867 32.0268 24.9467 32.2801ZM24.9467 27.6135C24.88 27.6668 24.8133 27.7201 24.7467 27.7735C24.6667 27.8268 24.5867 27.8668 24.5067 27.8935C24.4267 27.9335 24.3467 27.9601 24.2667 27.9734C24.1733 27.9868 24.0933 28.0001 24 28.0001C23.6533 28.0001 23.3067 27.8535 23.0533 27.6135C22.8133 27.3601 22.6667 27.0135 22.6667 26.6668C22.6667 26.3201 22.8133 25.9735 23.0533 25.7201C23.1733 25.6001 23.32 25.5068 23.4933 25.4401C23.9867 25.2268 24.5733 25.3468 24.9467 25.7201C25.1867 25.9735 25.3333 26.3201 25.3333 26.6668C25.3333 27.0135 25.1867 27.3601 24.9467 27.6135ZM29.6133 32.2801C29.36 32.5201 29.0133 32.6668 28.6667 32.6668C28.32 32.6668 27.9733 32.5201 27.72 32.2801C27.48 32.0268 27.3333 31.6801 27.3333 31.3335C27.3333 30.9868 27.48 30.6401 27.72 30.3868C28.2133 29.8935 29.12 29.8935 29.6133 30.3868C29.8533 30.6401 30 30.9868 30 31.3335C30 31.6801 29.8533 32.0268 29.6133 32.2801ZM29.6133 27.6135C29.5467 27.6668 29.48 27.7201 29.4133 27.7735C29.3333 27.8268 29.2533 27.8668 29.1733 27.8935C29.0933 27.9335 29.0133 27.9601 28.9333 27.9734C28.84 27.9868 28.7467 28.0001 28.6667 28.0001C28.32 28.0001 27.9733 27.8535 27.72 27.6135C27.48 27.3601 27.3333 27.0135 27.3333 26.6668C27.3333 26.3201 27.48 25.9735 27.72 25.7201C27.8533 25.6001 27.9867 25.5068 28.16 25.4401C28.4 25.3335 28.6667 25.3068 28.9333 25.3601C29.0133 25.3735 29.0933 25.4001 29.1733 25.4401C29.2533 25.4668 29.3333 25.5068 29.4133 25.5601C29.48 25.6135 29.5467 25.6668 29.6133 25.7201C29.8533 25.9735 30 26.3201 30 26.6668C30 27.0135 29.8533 27.3601 29.6133 27.6135Z" fill="#FF9E45"/>
</svg>
