<svg width="80" height="80" viewBox="0 0 80 80" fill="none" xmlns="http://www.w3.org/2000/svg">
<g clip-path="url(#clip0_4731_27326)">
<rect width="80" height="80" rx="40" fill="#BDBDBD"/>
<circle cx="40" cy="40" r="40" fill="#E0E0E0"/>
<path d="M40 52.0003C47.824 52.0003 54.1666 45.6577 54.1666 37.8337C54.1666 30.0096 47.824 23.667 40 23.667C32.1759 23.667 25.8333 30.0096 25.8333 37.8337C25.8333 45.6577 32.1759 52.0003 40 52.0003Z" fill="#868B9A"/>
<path d="M40 59.083C25.805 59.083 14.245 68.603 14.245 80.333C14.245 81.1263 14.8683 81.7497 15.6617 81.7497H64.3383C65.1317 81.7497 65.755 81.1263 65.755 80.333C65.755 68.603 54.195 59.083 40 59.083Z" fill="#868B9A"/>
</g>
<defs>
<clipPath id="clip0_4731_27326">
<rect width="80" height="80" rx="40" fill="white"/>
</clipPath>
</defs>
</svg>
