<svg width="48" height="48" viewBox="0 0 48 48" fill="none" xmlns="http://www.w3.org/2000/svg">
<rect width="48" height="48" rx="16" fill="#0068E1" fill-opacity="0.2"/>
<path d="M37.3333 22.6266V25.3733C37.3333 26.1066 36.7467 26.7066 36 26.7333H33.3867C31.9467 26.7333 30.6267 25.6799 30.5067 24.2399C30.4267 23.3999 30.7467 22.6133 31.3067 22.0666C31.8 21.5599 32.48 21.2666 33.2267 21.2666H36C36.7467 21.2933 37.3333 21.8933 37.3333 22.6266Z" fill="#0068E1"/>
<path d="M35.2933 28.7337H33.3867C30.8533 28.7337 28.72 26.827 28.5067 24.4003C28.3867 23.0137 28.8933 21.627 29.9067 20.6403C30.76 19.7603 31.9467 19.267 33.2267 19.267H35.2933C35.68 19.267 36 18.947 35.96 18.5603C35.6667 15.3203 33.52 13.107 30.3333 12.7337C30.0133 12.6803 29.68 12.667 29.3333 12.667H17.3333C16.96 12.667 16.6 12.6937 16.2533 12.747C12.8533 13.1737 10.6667 15.707 10.6667 19.3337V28.667C10.6667 32.347 13.6533 35.3337 17.3333 35.3337H29.3333C33.0667 35.3337 35.64 33.0003 35.96 29.4403C36 29.0537 35.68 28.7337 35.2933 28.7337ZM25.3333 21.0003H17.3333C16.7867 21.0003 16.3333 20.547 16.3333 20.0003C16.3333 19.4537 16.7867 19.0003 17.3333 19.0003H25.3333C25.88 19.0003 26.3333 19.4537 26.3333 20.0003C26.3333 20.547 25.88 21.0003 25.3333 21.0003Z" fill="#0068E1"/>
</svg>
